999
dxfrw 0.6.3
  0
SECTION
  2
HEADER
  9
$ACADVER
  1
AC1021
  9
$DWGCODEPAGE
  3
ANSI_1252
  9
$INSBASE
 10
0
 20
0
 30
0
  9
$EXTMIN
 10
-30.00122552632718
 20
-3.061515884555943e-015
 30
0
  9
$EXTMAX
 10
795.5405098069479
 20
638.149003
 30
0
  9
$LIMMIN
 10
0
 20
0
  9
$LIMMAX
 10
420
 20
297
  9
$ORTHOMODE
 70
    0
  9
$REGENMODE
 70
    1
  9
$FILLMODE
 70
    1
  9
$QTEXTMODE
 70
    0
  9
$MIRRTEXT
 70
    0
  9
$LTSCALE
 40
1
  9
$ATTMODE
 70
    0
  9
$TEXTSIZE
 40
2.5
  9
$TRACEWID
 40
15.68
  9
$TEXTSTYLE
  7
STANDARD
  9
$CLAYER
  8
0
  9
$CELTYPE
  6
BYLAYER
  9
$CECOLOR
 62
  256
  9
$CELTSCALE
 40
1
  9
$DISPSILH
 70
    0
  9
$DIMSCALE
 40
2.5
  9
$DIMASZ
 40
2.5
  9
$DIMEXO
 40
0.625
  9
$DIMDLI
 40
3.75
  9
$DIMRND
 40
0
  9
$DIMDLE
 40
0
  9
$DIMEXE
 40
1.25
  9
$DIMTP
 40
0
  9
$DIMTM
 40
0
  9
$DIMTXT
 40
2.5
  9
$DIMCEN
 40
2.5
  9
$DIMTSZ
 40
0
  9
$DIMTOL
 70
    0
  9
$DIMLIM
 70
    0
  9
$DIMTIH
 70
    0
  9
$DIMTOH
 70
    0
  9
$DIMSE1
 70
    0
  9
$DIMSE2
 70
    0
  9
$DIMTAD
 70
    1
  9
$DIMZIN
 70
    8
  9
$DIMBLK
  1

  9
$DIMASO
 70
    1
  9
$DIMSHO
 70
    1
  9
$DIMPOST
  1

  9
$DIMAPOST
  1

  9
$DIMALT
 70
    0
  9
$DIMALTD
 70
    3
  9
$DIMALTF
 40
0.03937
  9
$DIMLFAC
 40
1
  9
$DIMTOFL
 70
    1
  9
$DIMTVP
 40
0
  9
$DIMTIX
 70
    0
  9
$DIMSOXD
 70
    0
  9
$DIMSAH
 70
    0
  9
$DIMBLK1
  1

  9
$DIMBLK2
  1

  9
$DIMSTYLE
  2
Standard
  9
$DIMCLRD
 70
    0
  9
$DIMCLRE
 70
    0
  9
$DIMCLRT
 70
    0
  9
$DIMTFAC
 40
1
  9
$DIMGAP
 40
0.625
  9
$DIMJUST
 70
    0
  9
$DIMSD1
 70
    0
  9
$DIMSD2
 70
    0
  9
$DIMTOLJ
 70
    0
  9
$DIMTZIN
 70
    8
  9
$DIMALTZ
 70
    0
  9
$DIMALTTZ
 70
    0
  9
$DIMUPT
 70
    0
  9
$DIMDEC
 70
    2
  9
$DIMTDEC
 70
    2
  9
$DIMALTU
 70
    2
  9
$DIMALTTD
 70
    3
  9
$DIMTXSTY
  7
STANDARD
  9
$DIMAUNIT
 70
    0
  9
$DIMADEC
 70
    0
  9
$DIMALTRND
 40
0
  9
$DIMAZIN
 70
    0
  9
$DIMDSEP
 70
   44
  9
$DIMATFIT
 70
    3
  9
$DIMFRAC
 70
    0
  9
$DIMLDRBLK
  1
STANDARD
  9
$DIMLUNIT
 70
    2
  9
$DIMLWD
 70
   -2
  9
$DIMLWE
 70
   -2
  9
$DIMTMOVE
 70
    0
  9
$DIMFXL
 40
1
  9
$DIMFXLON
 70
    0
  9
$DIMJOGANG
 40
0.7854
  9
$DIMTFILL
 70
    0
  9
$DIMTFILLCLR
 70
    0
  9
$DIMARCSYM
 70
    0
  9
$DIMLTYPE
  6

  9
$DIMLTEX1
  6

  9
$DIMLTEX2
  6

  9
$LUNITS
 70
    2
  9
$LUPREC
 70
    4
  9
$SKETCHINC
 40
1
  9
$FILLETRAD
 40
0
  9
$AUNITS
 70
    0
  9
$AUPREC
 70
    2
  9
$MENU
  1
.
  9
$ELEVATION
 40
0
  9
$PELEVATION
 40
0
  9
$THICKNESS
 40
0
  9
$LIMCHECK
 70
    0
  9
$CHAMFERA
 40
0
  9
$CHAMFERB
 40
0
  9
$CHAMFERC
 40
0
  9
$CHAMFERD
 40
0
  9
$SKPOLY
 70
    0
  9
$USRTIMER
 70
    1
  9
$ANGBASE
 50
0
  9
$ANGDIR
 70
    0
  9
$PDMODE
 70
   34
  9
$PDSIZE
 40
0
  9
$PLINEWID
 40
0
  9
$SPLFRAME
 70
    0
  9
$SPLINETYPE
 70
    2
  9
$SPLINESEGS
 70
    8
  9
$HANDSEED
  5
20000
  9
$SURFTAB1
 70
    6
  9
$SURFTAB2
 70
    6
  9
$SURFTYPE
 70
    6
  9
$SURFU
 70
    6
  9
$SURFV
 70
    6
  9
$UCSBASE
  2

  9
$UCSNAME
  2

  9
$UCSORG
 10
0
 20
0
 30
0
  9
$UCSXDIR
 10
1
 20
0
 30
0
  9
$UCSYDIR
 10
0
 20
1
 30
0
  9
$UCSORTHOREF
  2

  9
$UCSORTHOVIEW
 70
    0
  9
$UCSORGTOP
 10
0
 20
0
 30
0
  9
$UCSORGBOTTOM
 10
0
 20
0
 30
0
  9
$UCSORGLEFT
 10
0
 20
0
 30
0
  9
$UCSORGRIGHT
 10
0
 20
0
 30
0
  9
$UCSORGFRONT
 10
0
 20
0
 30
0
  9
$UCSORGBACK
 10
0
 20
0
 30
0
  9
$PUCSBASE
  2

  9
$PUCSNAME
  2

  9
$PUCSORG
 10
0
 20
0
 30
0
  9
$PUCSXDIR
 10
1
 20
0
 30
0
  9
$PUCSYDIR
 10
0
 20
1
 30
0
  9
$PUCSORTHOREF
  2

  9
$PUCSORTHOVIEW
 70
    0
  9
$PUCSORGTOP
 10
0
 20
0
 30
0
  9
$PUCSORGBOTTOM
 10
0
 20
0
 30
0
  9
$PUCSORGLEFT
 10
0
 20
0
 30
0
  9
$PUCSORGRIGHT
 10
0
 20
0
 30
0
  9
$PUCSORGFRONT
 10
0
 20
0
 30
0
  9
$PUCSORGBACK
 10
0
 20
0
 30
0
  9
$USERI1
 70
    0
  9
$USERI2
 70
    0
  9
$USERI3
 70
    0
  9
$USERI4
 70
    0
  9
$USERI5
 70
    0
  9
$USERR1
 40
0
  9
$USERR2
 40
0
  9
$USERR3
 40
0
  9
$USERR4
 40
0
  9
$USERR5
 40
0
  9
$WORLDVIEW
 70
    1
  9
$SHADEDGE
 70
    3
  9
$SHADEDIF
 70
   70
  9
$TILEMODE
 70
    1
  9
$MAXACTVP
 70
   64
  9
$PINSBASE
 10
0
 20
0
 30
0
  9
$PLIMCHECK
 70
    0
  9
$PEXTMIN
 10
0
 20
0
 30
0
  9
$PEXTMAX
 10
0
 20
0
 30
0
  9
$GRIDMODE
 70
    1
  9
$SNAPSTYLE
 70
    0
  9
$PLIMMIN
 10
0
 20
0
  9
$PLIMMAX
 10
210
 20
297
  9
$UNITMODE
 70
    0
  9
$VISRETAIN
 70
    1
  9
$PLINEGEN
 70
    0
  9
$PSLTSCALE
 70
    1
  9
$TREEDEPTH
 70
 3020
  9
$CMLSTYLE
  2
Standard
  9
$CMLJUST
 70
    0
  9
$CMLSCALE
 40
20
  9
$PROXYGRAPHICS
 70
    1
  9
$MEASUREMENT
 70
    1
  9
$CELWEIGHT
370
   -1
  9
$ENDCAPS
280
    0
  9
$JOINSTYLE
280
    0
  9
$LWDISPLAY
290
    0
  9
$INSUNITS
 70
    4
  9
$HYPERLINKBASE
  1

  9
$STYLESHEET
  1

  9
$XEDIT
290
    1
  9
$CEPSNTYPE
380
    0
  9
$PSTYLEMODE
290
    1
  9
$EXTNAMES
290
    1
  9
$PSVPSCALE
 40
1
  9
$OLESTARTUP
290
    0
  9
$SORTENTS
280
  127
  9
$INDEXCTL
280
    0
  9
$HIDETEXT
280
    1
  9
$XCLIPFRAME
290
    0
  9
$HALOGAP
280
    0
  9
$OBSCOLOR
 70
  257
  9
$OBSLTYPE
280
    0
  9
$INTERSECTIONDISPLAY
280
    0
  9
$INTERSECTIONCOLOR
 70
  257
  9
$DIMASSOC
280
    1
  9
$PROJECTNAME
  1

  9
$CAMERADISPLAY
290
    0
  9
$LENSLENGTH
 40
50
  9
$CAMERAHEIGHT
 40
0
  9
$STEPSPERSEC
 40
2
  9
$STEPSIZE
 40
50
  9
$3DDWFPREC
 40
2
  9
$PSOLWIDTH
 40
5
  9
$PSOLHEIGHT
 40
80
  9
$LOFTANG1
 40
1.570796326794897
  9
$LOFTANG2
 40
1.570796326794897
  9
$LOFTMAG1
 40
0
  9
$LOFTMAG2
 40
0
  9
$LOFTPARAM
 70
    7
  9
$LOFTNORMALS
280
    1
  9
$LATITUDE
 40
1
  9
$LONGITUDE
 40
1
  9
$NORTHDIRECTION
 40
0
  9
$TIMEZONE
 70
-8000
  9
$LIGHTGLYPHDISPLAY
280
    1
  9
$TILEMODELIGHTSYNCH
280
    1
  9
$SOLIDHIST
280
    1
  9
$SHOWHIST
280
    1
  9
$DWFFRAME
280
    2
  9
$DGNFRAME
280
    0
  9
$REALWORLDSCALE
290
    1
  9
$INTERFERECOLOR
 62
    1
  9
$CSHADOW
280
    0
  9
$SHADOWPLANELOCATION
 40
0
  0
ENDSEC
  0
SECTION
  2
CLASSES
  0
ENDSEC
  0
SECTION
  2
TABLES
  0
TABLE
  2
VPORT
  5
8
330
0
100
AcDbSymbolTable
 70
    1
  0
VPORT
  5
31
330
2
100
AcDbSymbolTableRecord
100
AcDbViewportTableRecord
  2
*ACTIVE
 70
    0
 10
0
 20
0
 11
1
 21
1
 12
174.2110456431556
 22
131.0946846473045
 13
0
 23
0
 14
10
 24
10
 15
10
 25
10
 16
0
 26
0
 36
1
 17
0
 27
0
 37
0
 40
252.4140000000031
 41
1.677731673582296
 42
50
 43
0
 44
0
 50
0
 51
0
 71
    0
 72
  100
 73
    1
 74
    3
 75
    0
 76
    1
 77
    0
 78
    0
281
    0
 65
    1
110
0
120
0
130
0
111
1
121
0
131
0
112
0
122
1
132
0
 79
    0
146
0
348
10020
 60
    7
 61
    5
292
1
282
    1
141
0
142
0
 63
  250
421
3358443
  0
ENDTAB
  0
TABLE
  2
LTYPE
  5
5
330
0
100
AcDbSymbolTable
 70
    4
  0
LTYPE
  5
14
330
5
100
AcDbSymbolTableRecord
100
AcDbLinetypeTableRecord
  2
ByBlock
 70
    0
  3

 72
   65
 73
    0
 40
0
  0
LTYPE
  5
15
330
5
100
AcDbSymbolTableRecord
100
AcDbLinetypeTableRecord
  2
ByLayer
 70
    0
  3

 72
   65
 73
    0
 40
0
  0
LTYPE
  5
16
330
5
100
AcDbSymbolTableRecord
100
AcDbLinetypeTableRecord
  2
Continuous
 70
    0
  3
Solid line
 72
   65
 73
    0
 40
0
  0
LTYPE
  5
32
330
5
100
AcDbSymbolTableRecord
100
AcDbLinetypeTableRecord
  2
DOT
 70
    0
  3
Dot . . . . . . . . . . . . . . . . . . . . . .
 72
   65
 73
    2
 40
6.35
 49
0
 74
    0
 49
-6.35
 74
    0
  0
LTYPE
  5
33
330
5
100
AcDbSymbolTableRecord
100
AcDbLinetypeTableRecord
  2
DOTTINY
 70
    0
  3
Dot (.15x) .....................................
 72
   65
 73
    2
 40
0.9525
 49
0
 74
    0
 49
-0.9525
 74
    0
  0
LTYPE
  5
34
330
5
100
AcDbSymbolTableRecord
100
AcDbLinetypeTableRecord
  2
DOT2
 70
    0
  3
Dot (.5x) .....................................
 72
   65
 73
    2
 40
3.175
 49
0
 74
    0
 49
-3.175
 74
    0
  0
LTYPE
  5
35
330
5
100
AcDbSymbolTableRecord
100
AcDbLinetypeTableRecord
  2
DOTX2
 70
    0
  3
Dot (2x) .  .  .  .  .  .  .  .  .  .  .  .  .
 72
   65
 73
    2
 40
12.7
 49
0
 74
    0
 49
-12.7
 74
    0
  0
LTYPE
  5
36
330
5
100
AcDbSymbolTableRecord
100
AcDbLinetypeTableRecord
  2
DASHED
 70
    0
  3
Dashed _ _ _ _ _ _ _ _ _ _ _ _ _ _ _ _ _
 72
   65
 73
    2
 40
19.05
 49
12.7
 74
    0
 49
-6.35
 74
    0
  0
LTYPE
  5
37
330
5
100
AcDbSymbolTableRecord
100
AcDbLinetypeTableRecord
  2
DASHEDTINY
 70
    0
  3
Dashed (.15x) _ _ _ _ _ _ _ _ _ _ _ _ _ _ _ _ _
 72
   65
 73
    2
 40
2.8575
 49
1.905
 74
    0
 49
-0.9525
 74
    0
  0
LTYPE
  5
38
330
5
100
AcDbSymbolTableRecord
100
AcDbLinetypeTableRecord
  2
DASHED2
 70
    0
  3
Dashed (.5x) _ _ _ _ _ _ _ _ _ _ _ _ _ _ _ _ _
 72
   65
 73
    2
 40
9.524999999999999
 49
6.35
 74
    0
 49
-3.175
 74
    0
  0
LTYPE
  5
39
330
5
100
AcDbSymbolTableRecord
100
AcDbLinetypeTableRecord
  2
DASHEDX2
 70
    0
  3
Dashed (2x) ____  ____  ____  ____  ____  ___
 72
   65
 73
    2
 40
38.09999999999999
 49
25.4
 74
    0
 49
-12.7
 74
    0
  0
LTYPE
  5
3A
330
5
100
AcDbSymbolTableRecord
100
AcDbLinetypeTableRecord
  2
DASHDOT
 70
    0
  3
Dash dot __ . __ . __ . __ . __ . __ . __ . __
 72
   65
 73
    4
 40
25.4
 49
12.7
 74
    0
 49
-6.35
 74
    0
 49
0
 74
    0
 49
-6.35
 74
    0
  0
LTYPE
  5
3B
330
5
100
AcDbSymbolTableRecord
100
AcDbLinetypeTableRecord
  2
DASHDOTTINY
 70
    0
  3
Dash dot (.15x) _._._._._._._._._._._._._._._.
 72
   65
 73
    4
 40
3.81
 49
1.905
 74
    0
 49
-0.9525
 74
    0
 49
0
 74
    0
 49
-0.9525
 74
    0
  0
LTYPE
  5
3C
330
5
100
AcDbSymbolTableRecord
100
AcDbLinetypeTableRecord
  2
DASHDOT2
 70
    0
  3
Dash dot (.5x) _._._._._._._._._._._._._._._.
 72
   65
 73
    4
 40
12.7
 49
6.35
 74
    0
 49
-3.175
 74
    0
 49
0
 74
    0
 49
-3.175
 74
    0
  0
LTYPE
  5
3D
330
5
100
AcDbSymbolTableRecord
100
AcDbLinetypeTableRecord
  2
DASHDOTX2
 70
    0
  3
Dash dot (2x) ____  .  ____  .  ____  .  ___
 72
   65
 73
    4
 40
50.8
 49
25.4
 74
    0
 49
-12.7
 74
    0
 49
0
 74
    0
 49
-12.7
 74
    0
  0
LTYPE
  5
3E
330
5
100
AcDbSymbolTableRecord
100
AcDbLinetypeTableRecord
  2
DIVIDE
 70
    0
  3
Divide ____ . . ____ . . ____ . . ____ . . ____
 72
   65
 73
    6
 40
31.75
 49
12.7
 74
    0
 49
-6.35
 74
    0
 49
0
 74
    0
 49
-6.35
 74
    0
 49
0
 74
    0
 49
-6.35
 74
    0
  0
LTYPE
  5
3F
330
5
100
AcDbSymbolTableRecord
100
AcDbLinetypeTableRecord
  2
DIVIDETINY
 70
    0
  3
Divide (.15x) __..__..__..__..__..__..__..__.._
 72
   65
 73
    6
 40
4.7625
 49
1.905
 74
    0
 49
-0.9525
 74
    0
 49
0
 74
    0
 49
-0.9525
 74
    0
 49
0
 74
    0
 49
-0.9525
 74
    0
  0
LTYPE
  5
40
330
5
100
AcDbSymbolTableRecord
100
AcDbLinetypeTableRecord
  2
DIVIDE2
 70
    0
  3
Divide (.5x) __..__..__..__..__..__..__..__.._
 72
   65
 73
    6
 40
15.875
 49
6.35
 74
    0
 49
-3.175
 74
    0
 49
0
 74
    0
 49
-3.175
 74
    0
 49
0
 74
    0
 49
-3.175
 74
    0
  0
LTYPE
  5
41
330
5
100
AcDbSymbolTableRecord
100
AcDbLinetypeTableRecord
  2
DIVIDEX2
 70
    0
  3
Divide (2x) ________  .  .  ________  .  .  _
 72
   65
 73
    6
 40
63.5
 49
25.4
 74
    0
 49
-12.7
 74
    0
 49
0
 74
    0
 49
-12.7
 74
    0
 49
0
 74
    0
 49
-12.7
 74
    0
  0
LTYPE
  5
42
330
5
100
AcDbSymbolTableRecord
100
AcDbLinetypeTableRecord
  2
BORDER
 70
    0
  3
Border __ __ . __ __ . __ __ . __ __ . __ __ .
 72
   65
 73
    6
 40
44.45
 49
12.7
 74
    0
 49
-6.35
 74
    0
 49
12.7
 74
    0
 49
-6.35
 74
    0
 49
0
 74
    0
 49
-6.35
 74
    0
  0
LTYPE
  5
43
330
5
100
AcDbSymbolTableRecord
100
AcDbLinetypeTableRecord
  2
BORDERTINY
 70
    0
  3
Border (.15x) __.__.__.__.__.__.__.__.__.__.__.
 72
   65
 73
    6
 40
6.6675
 49
1.905
 74
    0
 49
-0.9525
 74
    0
 49
1.905
 74
    0
 49
-0.9525
 74
    0
 49
0
 74
    0
 49
-0.9525
 74
    0
  0
LTYPE
  5
44
330
5
100
AcDbSymbolTableRecord
100
AcDbLinetypeTableRecord
  2
BORDER2
 70
    0
  3
Border (.5x) __.__.__.__.__.__.__.__.__.__.__.
 72
   65
 73
    6
 40
22.225
 49
6.35
 74
    0
 49
-3.175
 74
    0
 49
6.35
 74
    0
 49
-3.175
 74
    0
 49
0
 74
    0
 49
-3.175
 74
    0
  0
LTYPE
  5
45
330
5
100
AcDbSymbolTableRecord
100
AcDbLinetypeTableRecord
  2
BORDERX2
 70
    0
  3
Border (2x) ____  ____  .  ____  ____  .  ___
 72
   65
 73
    6
 40
88.89999999999999
 49
25.4
 74
    0
 49
-12.7
 74
    0
 49
25.4
 74
    0
 49
-12.7
 74
    0
 49
0
 74
    0
 49
-12.7
 74
    0
  0
LTYPE
  5
46
330
5
100
AcDbSymbolTableRecord
100
AcDbLinetypeTableRecord
  2
CENTER
 70
    0
  3
Center ____ _ ____ _ ____ _ ____ _ ____ _ ____
 72
   65
 73
    4
 40
50.8
 49
31.75
 74
    0
 49
-6.35
 74
    0
 49
6.35
 74
    0
 49
-6.35
 74
    0
  0
LTYPE
  5
47
330
5
100
AcDbSymbolTableRecord
100
AcDbLinetypeTableRecord
  2
CENTERTINY
 70
    0
  3
Center (.15x) ___ _ ___ _ ___ _ ___ _ ___ _ ___
 72
   65
 73
    4
 40
7.62
 49
4.7625
 74
    0
 49
-0.9525
 74
    0
 49
0.9525
 74
    0
 49
-0.9525
 74
    0
  0
LTYPE
  5
48
330
5
100
AcDbSymbolTableRecord
100
AcDbLinetypeTableRecord
  2
CENTER2
 70
    0
  3
Center (.5x) ___ _ ___ _ ___ _ ___ _ ___ _ ___
 72
   65
 73
    4
 40
28.575
 49
19.05
 74
    0
 49
-3.175
 74
    0
 49
3.175
 74
    0
 49
-3.175
 74
    0
  0
LTYPE
  5
49
330
5
100
AcDbSymbolTableRecord
100
AcDbLinetypeTableRecord
  2
CENTERX2
 70
    0
  3
Center (2x) ________  __  ________  __  _____
 72
   65
 73
    4
 40
101.6
 49
63.5
 74
    0
 49
-12.7
 74
    0
 49
12.7
 74
    0
 49
-12.7
 74
    0
  0
ENDTAB
  0
TABLE
  2
LAYER
  5
2
330
0
100
AcDbSymbolTable
 70
    1
  0
LAYER
  5
10
330
2
100
AcDbSymbolTableRecord
100
AcDbLayerTableRecord
  2
0
 70
    0
 62
    7
  6
CONTINUOUS
370
    0
390
F
  0
ENDTAB
  0
TABLE
  2
STYLE
  5
3
330
0
100
AcDbSymbolTable
 70
    3
  0
STYLE
  5
4A
330
2
100
AcDbSymbolTableRecord
100
AcDbTextStyleTableRecord
  2
Standard
 70
    0
 40
0
 41
1
 50
0
 71
    0
 42
1
  3
txt
  4

  0
ENDTAB
  0
TABLE
  2
VIEW
  5
6
330
0
100
AcDbSymbolTable
 70
    0
  0
ENDTAB
  0
TABLE
  2
UCS
  5
7
330
0
100
AcDbSymbolTable
 70
    0
  0
ENDTAB
  0
TABLE
  2
APPID
  5
9
330
0
100
AcDbSymbolTable
 70
    1
  0
APPID
  5
12
330
9
100
AcDbSymbolTableRecord
100
AcDbRegAppTableRecord
  2
ACAD
 70
    0
  0
APPID
  5
4B
330
9
100
AcDbSymbolTableRecord
100
AcDbRegAppTableRecord
  2
LibreCad
 70
    0
  0
ENDTAB
  0
TABLE
  2
DIMSTYLE
  5
A
330
0
100
AcDbSymbolTable
 70
    1
100
AcDbDimStyleTable
 71
    1
  0
DIMSTYLE
105
4C
330
A
100
AcDbSymbolTableRecord
100
AcDbDimStyleTableRecord
  2
Standard
 70
    0
 40
2.5
 41
2.5
 42
0.625
 43
0.38
 44
1.25
 45
0
 46
0
 47
0
 48
0
 49
1
140
2.5
141
0.09
142
0
143
25.4
144
1
145
0
146
1
147
0.625
148
0
 71
    0
 72
    0
 73
    0
 74
    1
 75
    0
 76
    0
 77
    0
 78
    8
 79
    0
170
    0
171
    2
172
    0
173
    0
174
    0
175
    0
176
    0
177
    0
178
    0
179
    0
271
    2
272
    4
273
    2
274
    2
275
    0
276
    0
277
    2
278
   44
279
    0
280
    0
281
    0
282
    0
283
    1
284
    0
285
    0
286
    0
288
    0
289
    3
340
STANDARD
341

371
   -2
372
   -2
  0
ENDTAB
  0
TABLE
  2
BLOCK_RECORD
  5
1
330
0
100
AcDbSymbolTable
 70
    2
  0
BLOCK_RECORD
  5
1F
330
1
100
AcDbSymbolTableRecord
100
AcDbBlockTableRecord
  2
*Model_Space
 70
    0
280
    1
281
    0
  0
BLOCK_RECORD
  5
1E
330
1
100
AcDbSymbolTableRecord
100
AcDbBlockTableRecord
  2
*Paper_Space
 70
    0
280
    1
281
    0
  0
ENDTAB
  0
ENDSEC
  0
SECTION
  2
BLOCKS
  0
BLOCK
  5
20
330
1F
100
AcDbEntity
  8
0
100
AcDbBlockBegin
  2
*Model_Space
 70
    0
 10
0
 20
0
 30
0
  3
*Model_Space
  1

  0
ENDBLK
  5
21
330
1F
100
AcDbEntity
  8
0
100
AcDbBlockEnd
  0
BLOCK
  5
1C
330
1B
100
AcDbEntity
  8
0
100
AcDbBlockBegin
  2
*Paper_Space
 70
    0
 10
0
 20
0
 30
0
  3
*Paper_Space
  1

  0
ENDBLK
  5
1D
330
1F
100
AcDbEntity
  8
0
100
AcDbBlockEnd
  0
ENDSEC
  0
SECTION
  2
ENTITIES
  0
LWPOLYLINE
  5
4D
100
AcDbEntity
  8
0
  6
ByLayer
 62
  256
370
   -1
100
AcDbPolyline
 90
  263
 70
    1
 43
0
 10
611.023
 20
483.4160029999999
 10
603.4100000000001
 20
490.7600029999999
 10
591.049
 20
502.5380029999999
 10
585.6790000000001
 20
507.5860029999999
 10
582.231
 20
510.8010029999999
 10
573.771
 20
518.596003
 10
570.254
 20
521.794003
 10
559.259
 20
531.6040029999999
 10
556.0260000000001
 20
534.433003
 10
546.013
 20
543.020003
 10
542.579
 20
545.9030029999999
 10
535.312
 20
551.891003
 10
531.823
 20
554.7110029999999
 10
523.326
 20
561.419003
 10
519.822
 20
564.117003
 10
512.133
 20
569.8870029999999
 10
508.3910000000001
 20
572.6180029999999
 10
500.8340000000001
 20
577.9750029999999
 10
497.4070000000001
 20
580.3310029999999
 10
490.6460000000001
 20
584.8450029999999
 10
486.784
 20
587.341003
 10
480.8020000000001
 20
591.0840029999999
 10
476.438
 20
593.7190029999999
 10
471.2240000000001
 20
596.761003
 10
466.3020000000001
 20
599.525003
 10
461.8550000000001
 20
601.9320029999999
 10
458.789
 20
603.524003
 10
458.6010000000001
 20
603.6240029999999
 10
456.3480000000001
 20
604.7910029999999
 10
452.6490000000001
 20
606.636003
 10
450.0210000000001
 20
607.889003
 10
449.4540000000001
 20
608.1670029999999
 10
446.419
 20
609.607003
 10
443.5160000000001
 20
610.933003
 10
441.3820000000001
 20
611.862003
 10
440.3340000000001
 20
612.332003
 10
436.3360000000001
 20
614.0600029999999
 10
434.275
 20
614.9170029999999
 10
432.7030000000001
 20
615.539003
 10
431.0990000000001
 20
616.192003
 10
426.0910000000001
 20
618.1530029999999
 10
424.9080000000001
 20
618.5980029999999
 10
423.5990000000001
 20
619.0650029999999
 10
420.7060000000001
 20
620.1230029999999
 10
415.7039
 20
621.8780029999999
 10
415.4217
 20
621.9740029999999
 10
414.8712000000001
 20
622.149003
 10
410.1719000000001
 20
623.6800029999999
 10
406.6535000000001
 20
624.775003
 10
405.8377000000001
 20
625.035003
 10
405.1942000000001
 20
625.2290029999999
 10
400.5848000000001
 20
626.5560029999999
 10
397.9369000000001
 20
627.280003
 10
396.1704000000001
 20
627.780003
 10
394.5786000000001
 20
628.1990029999999
 10
390.9208
 20
629.115003
 10
389.1328000000001
 20
629.539003
 10
386.4297000000001
 20
630.2040029999999
 10
383.8588000000001
 20
630.788003
 10
380.1103000000001
 20
631.5850029999999
 10
379.1892000000001
 20
631.769003
 10
376.6254000000001
 20
632.3070029999999
 10
373.0322
 20
632.995003
 10
369.1980000000001
 20
633.668003
 10
368.9201
 20
633.713003
 10
366.7429000000001
 20
634.093003
 10
362.1302000000001
 20
634.813003
 10
356.8059000000001
 20
635.5560029999999
 10
351.1817000000001
 20
636.2380029999999
 10
346.8359000000001
 20
636.694003
 10
340.1958000000001
 20
637.269003
 10
336.8534000000001
 20
637.5040029999999
 10
329.1476000000001
 20
637.9060029999999
 10
326.8431
 20
637.9890029999999
 10
318.5263800000001
 20
638.145003
 10
316.8066375700001
 20
638.149003
 10
307.45887
 20
638.005003
 10
306.7708000000001
 20
637.9830029999999
 10
296.76
 20
637.491003
 10
296.4292000000001
 20
637.4700029999999
 10
295.0306
 20
637.3600029999999
 10
289.6029000000001
 20
636.8980029999999
 10
285.9658000000001
 20
636.593003
 10
285.6342000000001
 20
636.559003
 10
283.9713000000001
 20
636.3730029999999
 10
281.4437000000001
 20
636.0650029999999
 10
276.0197000000001
 20
635.4250029999999
 10
274.6224000000001
 20
635.2350029999999
 10
272.9480000000001
 20
634.986003
 10
271.7157000000001
 20
634.7910029999999
 10
266.1055000000001
 20
633.934003
 10
263.6671000000001
 20
633.5170029999999
 10
261.9693000000001
 20
633.2010029999999
 10
260.8207
 20
632.977003
 10
255.3153
 20
631.934003
 10
252.8
 20
631.410003
 10
245.5496
 20
629.7770029999999
 10
242.0172
 20
628.913003
 10
241.2898
 20
628.722003
 10
240.173
 20
628.4450029999999
 10
234.8144
 20
627.015003
 10
232.3677
 20
626.328003
 10
225.216
 20
624.193003
 10
221.7395
 20
623.087003
 10
215.705
 20
621.059003
 10
211.243
 20
619.4700029999999
 10
206.306
 20
617.620003
 10
200.912
 20
615.4880029999999
 10
197.045
 20
613.886003
 10
191.723
 20
611.5800029999999
 10
186.924
 20
609.3970029999999
 10
182.646
 20
607.366003
 10
176.944
 20
604.5330029999999
 10
173.704
 20
602.856003
 10
167.137
 20
599.309003
 10
164.921
 20
598.0650029999999
 10
160.121
 20
595.2870029999999
 10
158.486
 20
594.314003
 10
155.378
 20
592.4260029999999
 10
149.096
 20
588.4540029999999
 10
146.947
 20
587.0460029999999
 10
139.923
 20
582.260003
 10
137.903
 20
580.8310029999999
 10
130.961
 20
575.7280029999999
 10
129.8380000000001
 20
574.875003
 10
122.238
 20
568.8780029999999
 10
121.98
 20
568.668003
 10
113.961
 20
561.889003
 10
113.712
 20
561.670003
 10
106.2850000000001
 20
554.939003
 10
105.783
 20
554.468003
 10
99.07100000000003
 20
547.9600029999999
 10
97.85800000000003
 20
546.741003
 10
92.08800000000005
 20
540.750003
 10
90.51700000000005
 20
539.0620029999999
 10
85.35200000000003
 20
533.3290029999999
 10
83.15500000000003
 20
530.799003
 10
78.86700000000005
 20
525.697003
 10
76.11600000000004
 20
522.3020029999999
 10
72.62100000000004
 20
517.843003
 10
69.38200000000003
 20
513.553003
 10
66.63000000000005
 20
509.782003
 10
62.95900000000003
 20
504.558003
 10
60.90400000000005
 20
501.531003
 10
56.86400000000006
 20
495.342003
 10
55.45900000000003
 20
493.111003
 10
51.11400000000006
 20
485.931003
 10
50.28500000000005
 20
484.509003
 10
45.70800000000006
 20
476.324003
 10
45.39000000000001
 20
475.733003
 10
40.77800000000005
 20
466.791003
 10
40.64700000000002
 20
466.525003
 10
40.64600000000004
 20
466.524003
 10
40.64000000000001
 20
466.512003
 10
36.45700000000002
 20
457.697003
 10
35.93500000000003
 20
456.544003
 10
32.43600000000006
 20
448.470003
 10
31.58600000000004
 20
446.407003
 10
28.71900000000002
 20
439.119003
 10
27.60400000000001
 20
436.128003
 10
25.29900000000006
 20
429.622003
 10
23.98800000000002
 20
425.702003
 10
22.11600000000001
 20
419.786003
 10
20.67300000000003
 20
414.939003
 10
19.14800000000005
 20
409.504003
 10
17.61200000000005
 20
403.666003
 10
16.39000000000001
 20
398.717003
 10
14.80700000000004
 20
391.841003
 10
13.84000000000005
 20
387.345003
 10
12.25100000000006
 20
379.373003
 10
11.49400000000005
 20
375.284003
 10
11.15300000000004
 20
373.300003
 10
11.06800000000001
 20
372.778003
 10
9.938000000000011
 20
366.152003
 10
9.224000000000011
 20
361.575003
 10
8.956000000000039
 20
359.701003
 10
8.930000000000028
 20
359.514003
 10
7.86700000000004
 20
352.058003
 10
7.296000000000014
 20
347.672003
 10
6.995000000000026
 20
345.143003
 10
6.890000000000008
 20
344.215003
 10
6.03200000000006
 20
336.921003
 10
5.559000000000046
 20
332.459003
 10
5.260000000000011
 20
329.376003
 10
5.22600000000002
 20
329.013003
 10
4.655000000000049
 20
323.087003
 10
4.26400000000003
 20
318.620003
 10
3.766000000000039
 20
312.291003
 10
3.581000000000036
 20
309.697003
 10
3.256000000000047
 20
305.468003
 10
2.971000000000022
 20
301.181003
 10
2.537000000000053
 20
293.816003
 10
2.384000000000032
 20
290.867003
 10
2.133000000000056
 20
286.470003
 10
1.907000000000056
 20
281.721003
 10
1.437000000000028
 20
270.227003
 10
1.272000000000008
 20
265.515003
 10
1.045000000000032
 20
258.148003
 10
0.6320000000000198
 20
241.079003
 10
0.4420000000000214
 20
230.503003
 10
0.1990000000000252
 20
210.770003
 10
0.09100000000002018
 20
195.793003
 10
0.01900000000001614
 20
174.503003
 10
-0.002000000000000556
 20
146.876003
 10
0
 20
0
 10
50
 20
-3.061515884555943e-015
 10
50
 20
1.396102999999997
 10
87.06800000000001
 20
5.292082999999995
 10
88.91000000000003
 20
5.663272999999995
 10
90.65000000000001
 20
6.372562999999995
 10
92.227
 20
7.394922999999995
 10
93.58500000000001
 20
8.694262999999994
 10
94.447
 20
9.849202999999996
 10
95.20700000000002
 20
11.28100299999999
 10
95.726
 20
12.820503
 10
95.99800000000002
 20
14.54020299999999
 10
96.92400000000001
 20
27.78920299999999
 10
117.018
 20
28.43390299999999
 10
118.127
 20
44.30760299999999
 10
98.31800000000001
 20
47.74050299999999
 10
101.11
 20
87.697103
 10
111.256
 20
89.444103
 10
116.593
 20
98.80100299999999
 10
135.301
 20
105.899003
 10
181.495
 20
125.033003
 10
181.22
 20
125.698003
 10
216.8218
 20
140.444003
 10
218.3772
 20
136.689003
 10
219.6943
 20
136.145003
 10
219.7086
 20
136.138003
 10
220.3133
 20
135.935003
 10
522.422
 20
261.0720029999999
 10
522.741
 20
261.734003
 10
522.76
 20
261.773003
 10
522.763
 20
261.7810029999999
 10
523.258
 20
262.975003
 10
521.696
 20
266.7450029999999
 10
531.432
 20
270.7770029999999
 10
557.304
 20
281.4780029999999
 10
557.591
 20
280.785003
 10
603.7850000000001
 20
299.919003
 10
603.63
 20
300.292003
 10
622.1079999999999
 20
307.946003
 10
622.263
 20
307.573003
 10
637.6990000000001
 20
313.9670029999999
 10
670.46
 20
285.4850029999999
 10
685.553
 20
272.3630029999999
 10
696.165
 20
263.1370029999999
 10
697.5730000000001
 20
262.114003
 10
699.029
 20
261.393003
 10
700.579
 20
260.917003
 10
702.005
 20
260.710003
 10
703.884
 20
260.7520029999999
 10
705.722
 20
261.1440029999999
 10
707.454
 20
261.8730029999999
 10
709.019
 20
262.9130029999999
 10
737.985
 20
286.369003
 10
738.972
 20
285.3820029999999
 10
774.327
 20
320.737003
 10
670.4690000000001
 20
424.5980029999999
 10
650.9200000000001
 20
444.119003
 10
635.8140000000001
 20
459.1220029999999
 10
625.148
 20
469.6350029999999
  0
LWPOLYLINE
  5
4E
100
AcDbEntity
  8
0
  6
ByLayer
 62
  256
370
   -1
100
AcDbPolyline
 90
  131
 70
    1
 43
0
 10
600.114
 20
308.783003
 10
599.9590000000001
 20
309.1560029999999
 10
553.765
 20
290.0220029999999
 10
554.052
 20
289.3290029999999
 10
528.186
 20
278.5990029999999
 10
518.455
 20
274.5680029999999
 10
516.894
 20
278.338003
 10
515.702
 20
278.8320029999999
 10
515.694
 20
278.835003
 10
515.654
 20
278.8490029999999
 10
514.958
 20
279.0920029999999
 10
212.849
 20
153.955003
 10
212.566
 20
153.385003
 10
212.56
 20
153.370003
 10
212.014
 20
152.052003
 10
213.569
 20
148.297003
 10
177.967
 20
133.550003
 10
177.692
 20
134.215003
 10
131.498
 20
115.080003
 10
113.25
 20
106.871003
 10
102.365
 20
105.653003
 10
102.638
 20
109.560003
 10
112.784
 20
111.307003
 10
113.697
 20
124.375003
 10
103.892
 20
127.516003
 10
104.165
 20
131.422003
 10
114.312
 20
133.169003
 10
115.225
 20
146.238003
 10
105.42
 20
149.379003
 10
107.857
 20
184.250003
 10
254.0001
 20
184.250003
 10
254.0001
 20
234.250003
 10
111.35
 20
234.250003
 10
119.871
 20
356.188003
 10
139.964
 20
356.833003
 10
141.074
 20
372.707003
 10
121.265
 20
376.140003
 10
122.8260000000001
 20
398.492003
 10
122.796
 20
400.233003
 10
122.496
 20
401.830003
 10
121.943
 20
403.353003
 10
121.25
 20
404.617003
 10
120.234
 20
405.934003
 10
119.013
 20
407.064003
 10
117.622
 20
407.977003
 10
112.819
 20
410.585003
 10
114.918
 20
413.466003
 10
119.012
 20
418.630003
 10
133.147
 20
414.443003
 10
134.723
 20
414.126003
 10
136.331
 20
414.094003
 10
137.918
 20
414.349003
 10
139.435
 20
414.882003
 10
140.833
 20
415.677003
 10
142.067
 20
416.708003
 10
159.613
 20
434.254003
 10
168.876
 20
429.375003
 10
177.927
 20
438.426003
 10
173.048
 20
447.689003
 10
179.058
 20
453.699003
 10
194.615
 20
440.972003
 10
205.928
 20
452.285003
 10
193.2010000000001
 20
467.842003
 10
198.2010000000001
 20
472.842003
 10
211.483
 20
457.894003
 10
224.7866
 20
463.405003
 10
223.4346
 20
475.292003
 10
227.4251
 20
475.764003
 10
233.3391000000001
 20
466.406003
 10
241.654
 20
469.850003
 10
255.8133000000001
 20
435.666003
 10
258.4264
 20
434.584003
 10
284.295
 20
445.299003
 10
285.3774
 20
447.912003
 10
271.2182000000001
 20
482.096003
 10
279.5331
 20
485.540003
 10
276.5443000000001
 20
493.083003
 10
279.5603
 20
498.540003
 10
283.9022000000001
 20
496.550003
 10
286.6576000000001
 20
489.898003
 10
301.0067000000001
 20
494.976003
 10
299.8280000000001
 20
514.938003
 10
306.9000500000001
 20
514.938003
 10
308.9000500000001
 20
494.937003
 10
324.90004
 20
494.937003
 10
326.9000000000001
 20
514.938003
 10
335.4000000000001
 20
514.938003
 10
338.5000000000001
 20
504.937003
 10
351.3000000000001
 20
504.937003
 10
354.4000000000001
 20
514.938003
 10
379.2135000000001
 20
514.938003
 10
380.8151000000001
 20
515.0810029999999
 10
382.3655000000001
 20
515.5080029999999
 10
383.8153
 20
516.203003
 10
385.1183
 20
517.145003
 10
386.2327000000001
 20
518.304003
 10
387.1231000000001
 20
519.6430029999999
 10
394.1565000000001
 20
532.5990029999999
 10
400.7035000000001
 20
531.842003
 10
404.2249
 20
531.289003
 10
402.6726
 20
526.049003
 10
402.3344000000001
 20
524.420003
 10
402.2710000000001
 20
522.7580029999999
 10
402.4839000000001
 20
521.1080029999999
 10
402.8874000000001
 20
519.7240029999999
 10
403.5735000000001
 20
518.256003
 10
404.4903
 20
516.914003
 10
405.6998
 20
515.6620029999999
 10
422.775
 20
500.817003
 10
411.1959000000001
 20
484.382003
 10
423.2050000000001
 20
473.942003
 10
437.8690000000001
 20
487.695003
 10
450.818
 20
476.437003
 10
446.183
 20
467.675003
 10
456.371
 20
458.818003
 10
464.4030000000001
 20
464.6270029999999
 10
467.361
 20
462.0550029999999
 10
462.725
 20
453.293003
 10
472.913
 20
444.436003
 10
480.9450000000001
 20
450.2450029999999
 10
483.904
 20
447.6730029999999
 10
479.268
 20
438.9110029999999
 10
489.457
 20
430.054003
 10
497.488
 20
435.8630029999999
 10
529.951
 20
407.6400029999999
 10
429.083
 20
306.772003
 10
464.438
 20
271.4160029999999
 10
567.777
 20
374.7550029999999
 10
629.268
 20
321.2960029999999
 10
618.436
 20
316.8100029999999
 10
618.591
 20
316.436003
  0
LINE
  5
4F
100
AcDbEntity
  8
0
  6
ByLayer
 62
  256
370
   -1
100
AcDbLine
 10
689.4751053760934
 20
363.1643289896718
 11
731.9015122517111
 21
405.5907358652896
  0
LINE
  5
50
100
AcDbEntity
  8
0
  6
ByLayer
 62
  256
370
   -1
100
AcDbLine
 10
-30.00122552632718
 20
90
 11
29.99877447923544
 21
90
  0
ENDSEC
  0
SECTION
  2
OBJECTS
  0
DICTIONARY
  5
C
330
0
100
AcDbDictionary
281
    1
  3
ACAD_GROUP
350
D
  0
DICTIONARY
  5
D
330
C
100
AcDbDictionary
281
    1
  0
ENDSEC
  0
EOF
