999
dxfrw 0.6.3
  0
SECTION
  2
HEADER
  9
$ACADVER
  1
AC1021
  9
$DWGCODEPAGE
  3
ANSI_1252
  9
$INSBASE
 10
0
 20
0
 30
0
  9
$EXTMIN
 10
-29.99999998518872
 20
-4.250000000000039
 30
0
  9
$EXTMAX
 10
663.7972454966421
 20
633.901
 30
0
  9
$LIMMIN
 10
0
 20
0
  9
$LIMMAX
 10
420
 20
297
  9
$ORTHOMODE
 70
    0
  9
$REGENMODE
 70
    1
  9
$FILLMODE
 70
    1
  9
$QTEXTMODE
 70
    0
  9
$MIRRTEXT
 70
    0
  9
$LTSCALE
 40
1
  9
$ATTMODE
 70
    0
  9
$TEXTSIZE
 40
2.5
  9
$TRACEWID
 40
15.68
  9
$TEXTSTYLE
  7
STANDARD
  9
$CLAYER
  8
0
  9
$CELTYPE
  6
BYLAYER
  9
$CECOLOR
 62
  256
  9
$CELTSCALE
 40
1
  9
$DISPSILH
 70
    0
  9
$DIMSCALE
 40
2.5
  9
$DIMASZ
 40
2.5
  9
$DIMEXO
 40
0.625
  9
$DIMDLI
 40
3.75
  9
$DIMRND
 40
0
  9
$DIMDLE
 40
0
  9
$DIMEXE
 40
1.25
  9
$DIMTP
 40
0
  9
$DIMTM
 40
0
  9
$DIMTXT
 40
2.5
  9
$DIMCEN
 40
2.5
  9
$DIMTSZ
 40
0
  9
$DIMTOL
 70
    0
  9
$DIMLIM
 70
    0
  9
$DIMTIH
 70
    0
  9
$DIMTOH
 70
    0
  9
$DIMSE1
 70
    0
  9
$DIMSE2
 70
    0
  9
$DIMTAD
 70
    1
  9
$DIMZIN
 70
    8
  9
$DIMBLK
  1

  9
$DIMASO
 70
    1
  9
$DIMSHO
 70
    1
  9
$DIMPOST
  1

  9
$DIMAPOST
  1

  9
$DIMALT
 70
    0
  9
$DIMALTD
 70
    3
  9
$DIMALTF
 40
0.03937
  9
$DIMLFAC
 40
1
  9
$DIMTOFL
 70
    1
  9
$DIMTVP
 40
0
  9
$DIMTIX
 70
    0
  9
$DIMSOXD
 70
    0
  9
$DIMSAH
 70
    0
  9
$DIMBLK1
  1

  9
$DIMBLK2
  1

  9
$DIMSTYLE
  2
Standard
  9
$DIMCLRD
 70
    0
  9
$DIMCLRE
 70
    0
  9
$DIMCLRT
 70
    0
  9
$DIMTFAC
 40
1
  9
$DIMGAP
 40
0.625
  9
$DIMJUST
 70
    0
  9
$DIMSD1
 70
    0
  9
$DIMSD2
 70
    0
  9
$DIMTOLJ
 70
    0
  9
$DIMTZIN
 70
    8
  9
$DIMALTZ
 70
    0
  9
$DIMALTTZ
 70
    0
  9
$DIMUPT
 70
    0
  9
$DIMDEC
 70
    2
  9
$DIMTDEC
 70
    2
  9
$DIMALTU
 70
    2
  9
$DIMALTTD
 70
    3
  9
$DIMTXSTY
  7
STANDARD
  9
$DIMAUNIT
 70
    0
  9
$DIMADEC
 70
    0
  9
$DIMALTRND
 40
0
  9
$DIMAZIN
 70
    0
  9
$DIMDSEP
 70
   44
  9
$DIMATFIT
 70
    3
  9
$DIMFRAC
 70
    0
  9
$DIMLDRBLK
  1
STANDARD
  9
$DIMLUNIT
 70
    2
  9
$DIMLWD
 70
   -2
  9
$DIMLWE
 70
   -2
  9
$DIMTMOVE
 70
    0
  9
$DIMFXL
 40
1
  9
$DIMFXLON
 70
    0
  9
$DIMJOGANG
 40
0.7854
  9
$DIMTFILL
 70
    0
  9
$DIMTFILLCLR
 70
    0
  9
$DIMARCSYM
 70
    0
  9
$DIMLTYPE
  6

  9
$DIMLTEX1
  6

  9
$DIMLTEX2
  6

  9
$LUNITS
 70
    2
  9
$LUPREC
 70
    4
  9
$SKETCHINC
 40
1
  9
$FILLETRAD
 40
0
  9
$AUNITS
 70
    0
  9
$AUPREC
 70
    2
  9
$MENU
  1
.
  9
$ELEVATION
 40
0
  9
$PELEVATION
 40
0
  9
$THICKNESS
 40
0
  9
$LIMCHECK
 70
    0
  9
$CHAMFERA
 40
0
  9
$CHAMFERB
 40
0
  9
$CHAMFERC
 40
0
  9
$CHAMFERD
 40
0
  9
$SKPOLY
 70
    0
  9
$USRTIMER
 70
    1
  9
$ANGBASE
 50
0
  9
$ANGDIR
 70
    0
  9
$PDMODE
 70
   34
  9
$PDSIZE
 40
0
  9
$PLINEWID
 40
0
  9
$SPLFRAME
 70
    0
  9
$SPLINETYPE
 70
    2
  9
$SPLINESEGS
 70
    8
  9
$HANDSEED
  5
20000
  9
$SURFTAB1
 70
    6
  9
$SURFTAB2
 70
    6
  9
$SURFTYPE
 70
    6
  9
$SURFU
 70
    6
  9
$SURFV
 70
    6
  9
$UCSBASE
  2

  9
$UCSNAME
  2

  9
$UCSORG
 10
0
 20
0
 30
0
  9
$UCSXDIR
 10
1
 20
0
 30
0
  9
$UCSYDIR
 10
0
 20
1
 30
0
  9
$UCSORTHOREF
  2

  9
$UCSORTHOVIEW
 70
    0
  9
$UCSORGTOP
 10
0
 20
0
 30
0
  9
$UCSORGBOTTOM
 10
0
 20
0
 30
0
  9
$UCSORGLEFT
 10
0
 20
0
 30
0
  9
$UCSORGRIGHT
 10
0
 20
0
 30
0
  9
$UCSORGFRONT
 10
0
 20
0
 30
0
  9
$UCSORGBACK
 10
0
 20
0
 30
0
  9
$PUCSBASE
  2

  9
$PUCSNAME
  2

  9
$PUCSORG
 10
0
 20
0
 30
0
  9
$PUCSXDIR
 10
1
 20
0
 30
0
  9
$PUCSYDIR
 10
0
 20
1
 30
0
  9
$PUCSORTHOREF
  2

  9
$PUCSORTHOVIEW
 70
    0
  9
$PUCSORGTOP
 10
0
 20
0
 30
0
  9
$PUCSORGBOTTOM
 10
0
 20
0
 30
0
  9
$PUCSORGLEFT
 10
0
 20
0
 30
0
  9
$PUCSORGRIGHT
 10
0
 20
0
 30
0
  9
$PUCSORGFRONT
 10
0
 20
0
 30
0
  9
$PUCSORGBACK
 10
0
 20
0
 30
0
  9
$USERI1
 70
    0
  9
$USERI2
 70
    0
  9
$USERI3
 70
    0
  9
$USERI4
 70
    0
  9
$USERI5
 70
    0
  9
$USERR1
 40
0
  9
$USERR2
 40
0
  9
$USERR3
 40
0
  9
$USERR4
 40
0
  9
$USERR5
 40
0
  9
$WORLDVIEW
 70
    1
  9
$SHADEDGE
 70
    3
  9
$SHADEDIF
 70
   70
  9
$TILEMODE
 70
    1
  9
$MAXACTVP
 70
   64
  9
$PINSBASE
 10
0
 20
0
 30
0
  9
$PLIMCHECK
 70
    0
  9
$PEXTMIN
 10
0
 20
0
 30
0
  9
$PEXTMAX
 10
0
 20
0
 30
0
  9
$GRIDMODE
 70
    1
  9
$SNAPSTYLE
 70
    0
  9
$PLIMMIN
 10
0
 20
0
  9
$PLIMMAX
 10
210
 20
297
  9
$UNITMODE
 70
    0
  9
$VISRETAIN
 70
    1
  9
$PLINEGEN
 70
    0
  9
$PSLTSCALE
 70
    1
  9
$TREEDEPTH
 70
 3020
  9
$CMLSTYLE
  2
Standard
  9
$CMLJUST
 70
    0
  9
$CMLSCALE
 40
20
  9
$PROXYGRAPHICS
 70
    1
  9
$MEASUREMENT
 70
    1
  9
$CELWEIGHT
370
   -1
  9
$ENDCAPS
280
    0
  9
$JOINSTYLE
280
    0
  9
$LWDISPLAY
290
    0
  9
$INSUNITS
 70
    4
  9
$HYPERLINKBASE
  1

  9
$STYLESHEET
  1

  9
$XEDIT
290
    1
  9
$CEPSNTYPE
380
    0
  9
$PSTYLEMODE
290
    1
  9
$EXTNAMES
290
    1
  9
$PSVPSCALE
 40
1
  9
$OLESTARTUP
290
    0
  9
$SORTENTS
280
  127
  9
$INDEXCTL
280
    0
  9
$HIDETEXT
280
    1
  9
$XCLIPFRAME
290
    0
  9
$HALOGAP
280
    0
  9
$OBSCOLOR
 70
  257
  9
$OBSLTYPE
280
    0
  9
$INTERSECTIONDISPLAY
280
    0
  9
$INTERSECTIONCOLOR
 70
  257
  9
$DIMASSOC
280
    1
  9
$PROJECTNAME
  1

  9
$CAMERADISPLAY
290
    0
  9
$LENSLENGTH
 40
50
  9
$CAMERAHEIGHT
 40
0
  9
$STEPSPERSEC
 40
2
  9
$STEPSIZE
 40
50
  9
$3DDWFPREC
 40
2
  9
$PSOLWIDTH
 40
5
  9
$PSOLHEIGHT
 40
80
  9
$LOFTANG1
 40
1.570796326794897
  9
$LOFTANG2
 40
1.570796326794897
  9
$LOFTMAG1
 40
0
  9
$LOFTMAG2
 40
0
  9
$LOFTPARAM
 70
    7
  9
$LOFTNORMALS
280
    1
  9
$LATITUDE
 40
1
  9
$LONGITUDE
 40
1
  9
$NORTHDIRECTION
 40
0
  9
$TIMEZONE
 70
-8000
  9
$LIGHTGLYPHDISPLAY
280
    1
  9
$TILEMODELIGHTSYNCH
280
    1
  9
$SOLIDHIST
280
    1
  9
$SHOWHIST
280
    1
  9
$DWFFRAME
280
    2
  9
$DGNFRAME
280
    0
  9
$REALWORLDSCALE
290
    1
  9
$INTERFERECOLOR
 62
    1
  9
$CSHADOW
280
    0
  9
$SHADOWPLANELOCATION
 40
0
  0
ENDSEC
  0
SECTION
  2
CLASSES
  0
ENDSEC
  0
SECTION
  2
TABLES
  0
TABLE
  2
VPORT
  5
8
330
0
100
AcDbSymbolTable
 70
    1
  0
VPORT
  5
31
330
2
100
AcDbSymbolTableRecord
100
AcDbViewportTableRecord
  2
*ACTIVE
 70
    0
 10
0
 20
0
 11
1
 21
1
 12
372.5733143860294
 22
343.321690529275
 13
0
 23
0
 14
10
 24
10
 15
10
 25
10
 16
0
 26
0
 36
1
 17
0
 27
0
 37
0
 40
742.0675104713479
 41
1.677731673582296
 42
50
 43
0
 44
0
 50
0
 51
0
 71
    0
 72
  100
 73
    1
 74
    3
 75
    0
 76
    1
 77
    0
 78
    0
281
    0
 65
    1
110
0
120
0
130
0
111
1
121
0
131
0
112
0
122
1
132
0
 79
    0
146
0
348
10020
 60
    7
 61
    5
292
1
282
    1
141
0
142
0
 63
  250
421
3358443
  0
ENDTAB
  0
TABLE
  2
LTYPE
  5
5
330
0
100
AcDbSymbolTable
 70
    4
  0
LTYPE
  5
14
330
5
100
AcDbSymbolTableRecord
100
AcDbLinetypeTableRecord
  2
ByBlock
 70
    0
  3

 72
   65
 73
    0
 40
0
  0
LTYPE
  5
15
330
5
100
AcDbSymbolTableRecord
100
AcDbLinetypeTableRecord
  2
ByLayer
 70
    0
  3

 72
   65
 73
    0
 40
0
  0
LTYPE
  5
16
330
5
100
AcDbSymbolTableRecord
100
AcDbLinetypeTableRecord
  2
Continuous
 70
    0
  3
Solid line
 72
   65
 73
    0
 40
0
  0
LTYPE
  5
32
330
5
100
AcDbSymbolTableRecord
100
AcDbLinetypeTableRecord
  2
DOT
 70
    0
  3
Dot . . . . . . . . . . . . . . . . . . . . . .
 72
   65
 73
    2
 40
6.35
 49
0
 74
    0
 49
-6.35
 74
    0
  0
LTYPE
  5
33
330
5
100
AcDbSymbolTableRecord
100
AcDbLinetypeTableRecord
  2
DOTTINY
 70
    0
  3
Dot (.15x) .....................................
 72
   65
 73
    2
 40
0.9525
 49
0
 74
    0
 49
-0.9525
 74
    0
  0
LTYPE
  5
34
330
5
100
AcDbSymbolTableRecord
100
AcDbLinetypeTableRecord
  2
DOT2
 70
    0
  3
Dot (.5x) .....................................
 72
   65
 73
    2
 40
3.175
 49
0
 74
    0
 49
-3.175
 74
    0
  0
LTYPE
  5
35
330
5
100
AcDbSymbolTableRecord
100
AcDbLinetypeTableRecord
  2
DOTX2
 70
    0
  3
Dot (2x) .  .  .  .  .  .  .  .  .  .  .  .  .
 72
   65
 73
    2
 40
12.7
 49
0
 74
    0
 49
-12.7
 74
    0
  0
LTYPE
  5
36
330
5
100
AcDbSymbolTableRecord
100
AcDbLinetypeTableRecord
  2
DASHED
 70
    0
  3
Dashed _ _ _ _ _ _ _ _ _ _ _ _ _ _ _ _ _
 72
   65
 73
    2
 40
19.05
 49
12.7
 74
    0
 49
-6.35
 74
    0
  0
LTYPE
  5
37
330
5
100
AcDbSymbolTableRecord
100
AcDbLinetypeTableRecord
  2
DASHEDTINY
 70
    0
  3
Dashed (.15x) _ _ _ _ _ _ _ _ _ _ _ _ _ _ _ _ _
 72
   65
 73
    2
 40
2.8575
 49
1.905
 74
    0
 49
-0.9525
 74
    0
  0
LTYPE
  5
38
330
5
100
AcDbSymbolTableRecord
100
AcDbLinetypeTableRecord
  2
DASHED2
 70
    0
  3
Dashed (.5x) _ _ _ _ _ _ _ _ _ _ _ _ _ _ _ _ _
 72
   65
 73
    2
 40
9.524999999999999
 49
6.35
 74
    0
 49
-3.175
 74
    0
  0
LTYPE
  5
39
330
5
100
AcDbSymbolTableRecord
100
AcDbLinetypeTableRecord
  2
DASHEDX2
 70
    0
  3
Dashed (2x) ____  ____  ____  ____  ____  ___
 72
   65
 73
    2
 40
38.09999999999999
 49
25.4
 74
    0
 49
-12.7
 74
    0
  0
LTYPE
  5
3A
330
5
100
AcDbSymbolTableRecord
100
AcDbLinetypeTableRecord
  2
DASHDOT
 70
    0
  3
Dash dot __ . __ . __ . __ . __ . __ . __ . __
 72
   65
 73
    4
 40
25.4
 49
12.7
 74
    0
 49
-6.35
 74
    0
 49
0
 74
    0
 49
-6.35
 74
    0
  0
LTYPE
  5
3B
330
5
100
AcDbSymbolTableRecord
100
AcDbLinetypeTableRecord
  2
DASHDOTTINY
 70
    0
  3
Dash dot (.15x) _._._._._._._._._._._._._._._.
 72
   65
 73
    4
 40
3.81
 49
1.905
 74
    0
 49
-0.9525
 74
    0
 49
0
 74
    0
 49
-0.9525
 74
    0
  0
LTYPE
  5
3C
330
5
100
AcDbSymbolTableRecord
100
AcDbLinetypeTableRecord
  2
DASHDOT2
 70
    0
  3
Dash dot (.5x) _._._._._._._._._._._._._._._.
 72
   65
 73
    4
 40
12.7
 49
6.35
 74
    0
 49
-3.175
 74
    0
 49
0
 74
    0
 49
-3.175
 74
    0
  0
LTYPE
  5
3D
330
5
100
AcDbSymbolTableRecord
100
AcDbLinetypeTableRecord
  2
DASHDOTX2
 70
    0
  3
Dash dot (2x) ____  .  ____  .  ____  .  ___
 72
   65
 73
    4
 40
50.8
 49
25.4
 74
    0
 49
-12.7
 74
    0
 49
0
 74
    0
 49
-12.7
 74
    0
  0
LTYPE
  5
3E
330
5
100
AcDbSymbolTableRecord
100
AcDbLinetypeTableRecord
  2
DIVIDE
 70
    0
  3
Divide ____ . . ____ . . ____ . . ____ . . ____
 72
   65
 73
    6
 40
31.75
 49
12.7
 74
    0
 49
-6.35
 74
    0
 49
0
 74
    0
 49
-6.35
 74
    0
 49
0
 74
    0
 49
-6.35
 74
    0
  0
LTYPE
  5
3F
330
5
100
AcDbSymbolTableRecord
100
AcDbLinetypeTableRecord
  2
DIVIDETINY
 70
    0
  3
Divide (.15x) __..__..__..__..__..__..__..__.._
 72
   65
 73
    6
 40
4.7625
 49
1.905
 74
    0
 49
-0.9525
 74
    0
 49
0
 74
    0
 49
-0.9525
 74
    0
 49
0
 74
    0
 49
-0.9525
 74
    0
  0
LTYPE
  5
40
330
5
100
AcDbSymbolTableRecord
100
AcDbLinetypeTableRecord
  2
DIVIDE2
 70
    0
  3
Divide (.5x) __..__..__..__..__..__..__..__.._
 72
   65
 73
    6
 40
15.875
 49
6.35
 74
    0
 49
-3.175
 74
    0
 49
0
 74
    0
 49
-3.175
 74
    0
 49
0
 74
    0
 49
-3.175
 74
    0
  0
LTYPE
  5
41
330
5
100
AcDbSymbolTableRecord
100
AcDbLinetypeTableRecord
  2
DIVIDEX2
 70
    0
  3
Divide (2x) ________  .  .  ________  .  .  _
 72
   65
 73
    6
 40
63.5
 49
25.4
 74
    0
 49
-12.7
 74
    0
 49
0
 74
    0
 49
-12.7
 74
    0
 49
0
 74
    0
 49
-12.7
 74
    0
  0
LTYPE
  5
42
330
5
100
AcDbSymbolTableRecord
100
AcDbLinetypeTableRecord
  2
BORDER
 70
    0
  3
Border __ __ . __ __ . __ __ . __ __ . __ __ .
 72
   65
 73
    6
 40
44.45
 49
12.7
 74
    0
 49
-6.35
 74
    0
 49
12.7
 74
    0
 49
-6.35
 74
    0
 49
0
 74
    0
 49
-6.35
 74
    0
  0
LTYPE
  5
43
330
5
100
AcDbSymbolTableRecord
100
AcDbLinetypeTableRecord
  2
BORDERTINY
 70
    0
  3
Border (.15x) __.__.__.__.__.__.__.__.__.__.__.
 72
   65
 73
    6
 40
6.6675
 49
1.905
 74
    0
 49
-0.9525
 74
    0
 49
1.905
 74
    0
 49
-0.9525
 74
    0
 49
0
 74
    0
 49
-0.9525
 74
    0
  0
LTYPE
  5
44
330
5
100
AcDbSymbolTableRecord
100
AcDbLinetypeTableRecord
  2
BORDER2
 70
    0
  3
Border (.5x) __.__.__.__.__.__.__.__.__.__.__.
 72
   65
 73
    6
 40
22.225
 49
6.35
 74
    0
 49
-3.175
 74
    0
 49
6.35
 74
    0
 49
-3.175
 74
    0
 49
0
 74
    0
 49
-3.175
 74
    0
  0
LTYPE
  5
45
330
5
100
AcDbSymbolTableRecord
100
AcDbLinetypeTableRecord
  2
BORDERX2
 70
    0
  3
Border (2x) ____  ____  .  ____  ____  .  ___
 72
   65
 73
    6
 40
88.89999999999999
 49
25.4
 74
    0
 49
-12.7
 74
    0
 49
25.4
 74
    0
 49
-12.7
 74
    0
 49
0
 74
    0
 49
-12.7
 74
    0
  0
LTYPE
  5
46
330
5
100
AcDbSymbolTableRecord
100
AcDbLinetypeTableRecord
  2
CENTER
 70
    0
  3
Center ____ _ ____ _ ____ _ ____ _ ____ _ ____
 72
   65
 73
    4
 40
50.8
 49
31.75
 74
    0
 49
-6.35
 74
    0
 49
6.35
 74
    0
 49
-6.35
 74
    0
  0
LTYPE
  5
47
330
5
100
AcDbSymbolTableRecord
100
AcDbLinetypeTableRecord
  2
CENTERTINY
 70
    0
  3
Center (.15x) ___ _ ___ _ ___ _ ___ _ ___ _ ___
 72
   65
 73
    4
 40
7.62
 49
4.7625
 74
    0
 49
-0.9525
 74
    0
 49
0.9525
 74
    0
 49
-0.9525
 74
    0
  0
LTYPE
  5
48
330
5
100
AcDbSymbolTableRecord
100
AcDbLinetypeTableRecord
  2
CENTER2
 70
    0
  3
Center (.5x) ___ _ ___ _ ___ _ ___ _ ___ _ ___
 72
   65
 73
    4
 40
28.575
 49
19.05
 74
    0
 49
-3.175
 74
    0
 49
3.175
 74
    0
 49
-3.175
 74
    0
  0
LTYPE
  5
49
330
5
100
AcDbSymbolTableRecord
100
AcDbLinetypeTableRecord
  2
CENTERX2
 70
    0
  3
Center (2x) ________  __  ________  __  _____
 72
   65
 73
    4
 40
101.6
 49
63.5
 74
    0
 49
-12.7
 74
    0
 49
12.7
 74
    0
 49
-12.7
 74
    0
  0
ENDTAB
  0
TABLE
  2
LAYER
  5
2
330
0
100
AcDbSymbolTable
 70
    1
  0
LAYER
  5
10
330
2
100
AcDbSymbolTableRecord
100
AcDbLayerTableRecord
  2
0
 70
    0
 62
    7
  6
CONTINUOUS
370
    0
390
F
  0
ENDTAB
  0
TABLE
  2
STYLE
  5
3
330
0
100
AcDbSymbolTable
 70
    3
  0
STYLE
  5
4A
330
2
100
AcDbSymbolTableRecord
100
AcDbTextStyleTableRecord
  2
Standard
 70
    0
 40
0
 41
1
 50
0
 71
    0
 42
1
  3
txt
  4

  0
ENDTAB
  0
TABLE
  2
VIEW
  5
6
330
0
100
AcDbSymbolTable
 70
    0
  0
ENDTAB
  0
TABLE
  2
UCS
  5
7
330
0
100
AcDbSymbolTable
 70
    0
  0
ENDTAB
  0
TABLE
  2
APPID
  5
9
330
0
100
AcDbSymbolTable
 70
    1
  0
APPID
  5
12
330
9
100
AcDbSymbolTableRecord
100
AcDbRegAppTableRecord
  2
ACAD
 70
    0
  0
APPID
  5
4B
330
9
100
AcDbSymbolTableRecord
100
AcDbRegAppTableRecord
  2
LibreCad
 70
    0
  0
ENDTAB
  0
TABLE
  2
DIMSTYLE
  5
A
330
0
100
AcDbSymbolTable
 70
    1
100
AcDbDimStyleTable
 71
    1
  0
DIMSTYLE
105
4C
330
A
100
AcDbSymbolTableRecord
100
AcDbDimStyleTableRecord
  2
Standard
 70
    0
 40
2.5
 41
2.5
 42
0.625
 43
0.38
 44
1.25
 45
0
 46
0
 47
0
 48
0
 49
1
140
2.5
141
0.09
142
0
143
25.4
144
1
145
0
146
1
147
0.625
148
0
 71
    0
 72
    0
 73
    0
 74
    1
 75
    0
 76
    0
 77
    0
 78
    8
 79
    0
170
    0
171
    2
172
    0
173
    0
174
    0
175
    0
176
    0
177
    0
178
    0
179
    0
271
    2
272
    4
273
    2
274
    2
275
    0
276
    0
277
    2
278
   44
279
    0
280
    0
281
    0
282
    0
283
    1
284
    0
285
    0
286
    0
288
    0
289
    3
340
STANDARD
341

371
   -2
372
   -2
  0
ENDTAB
  0
TABLE
  2
BLOCK_RECORD
  5
1
330
0
100
AcDbSymbolTable
 70
    2
  0
BLOCK_RECORD
  5
1F
330
1
100
AcDbSymbolTableRecord
100
AcDbBlockTableRecord
  2
*Model_Space
 70
    0
280
    1
281
    0
  0
BLOCK_RECORD
  5
1E
330
1
100
AcDbSymbolTableRecord
100
AcDbBlockTableRecord
  2
*Paper_Space
 70
    0
280
    1
281
    0
  0
ENDTAB
  0
ENDSEC
  0
SECTION
  2
BLOCKS
  0
BLOCK
  5
20
330
1F
100
AcDbEntity
  8
0
100
AcDbBlockBegin
  2
*Model_Space
 70
    0
 10
0
 20
0
 30
0
  3
*Model_Space
  1

  0
ENDBLK
  5
21
330
1F
100
AcDbEntity
  8
0
100
AcDbBlockEnd
  0
BLOCK
  5
1C
330
1B
100
AcDbEntity
  8
0
100
AcDbBlockBegin
  2
*Paper_Space
 70
    0
 10
0
 20
0
 30
0
  3
*Paper_Space
  1

  0
ENDBLK
  5
1D
330
1F
100
AcDbEntity
  8
0
100
AcDbBlockEnd
  0
ENDSEC
  0
SECTION
  2
ENTITIES
  0
LWPOLYLINE
  5
4D
100
AcDbEntity
  8
0
  6
ByLayer
 62
  256
370
   -1
100
AcDbPolyline
 90
    3
 70
    1
 43
0
 10
274.1923
 20
630.904
 10
280.6197
 20
631.716
 10
275.8496
 20
631.154
  0
LWPOLYLINE
  5
4E
100
AcDbEntity
  8
0
  6
ByLayer
 62
  256
370
   -1
100
AcDbPolyline
 90
  467
 70
    1
 43
0
 10
384.9477000000001
 20
626.261
 10
382.8628
 20
626.758
 10
380.5360000000001
 20
627.224
 10
377.6906
 20
627.845
 10
374.5107
 20
628.431
 10
371.9895
 20
628.936
 10
370.0912
 20
629.246
 10
367.8499
 20
629.659
 10
363.9432
 20
630.249
 10
361.0438
 20
630.722
 10
359.6078000000001
 20
630.904
 10
357.9504000000001
 20
631.154
 10
353.1802
 20
631.716
 10
350.0552
 20
632.112
 10
349.1009
 20
632.198
 10
348.0179000000001
 20
632.325
 10
342.4921000000001
 20
632.836
 10
339.7402
 20
633.04
 10
339.0000000000001
 20
633.107
 10
338.4288
 20
633.1369999999999
 10
336.9538000000001
 20
633.247
 10
330.7796
 20
633.549
 10
327.9141
 20
633.703
 10
327.4653
 20
633.711
 10
326.9625
 20
633.736
 10
316.9670319000001
 20
633.901
 10
316.9
 20
633.899
 10
316.8329681
 20
633.901
 10
306.8375
 20
633.736
 10
306.3348
 20
633.711
 10
305.8859
 20
633.703
 10
303.0203
 20
633.549
 10
296.8462
 20
633.247
 10
295.3713
 20
633.1369999999999
 10
294.8
 20
633.107
 10
294.0597
 20
633.04
 10
291.308
 20
632.836
 10
285.7821
 20
632.325
 10
284.6991
 20
632.198
 10
283.7448000000001
 20
632.112
 10
272.7562
 20
630.722
 10
269.8567
 20
630.249
 10
265.9501
 20
629.659
 10
263.7088000000001
 20
629.246
 10
261.8105
 20
628.936
 10
259.2893
 20
628.431
 10
256.1094000000001
 20
627.845
 10
253.2639
 20
627.224
 10
250.9372
 20
626.758
 10
248.8523
 20
626.261
 10
246.3376
 20
625.713
 10
242.8703
 20
624.837
 10
240.1715
 20
624.1950000000001
 10
238.5397
 20
623.744
 10
236.6246
 20
623.26
 10
232.4638
 20
622.0650000000001
 10
229.4939
 20
621.244
 10
228.3322
 20
620.878
 10
226.9948
 20
620.4930000000001
 10
221.929
 20
618.8579999999999
 10
218.9284
 20
617.9109999999999
 10
218.2459
 20
617.669
 10
217.473
 20
617.419
 10
212.983
 20
615.798
 10
208.508
 20
614.208
 10
207.798
 20
613.926
 10
207.079
 20
613.667
 10
200.371
 20
610.982
 10
198.22
 20
610.13
 10
198.008
 20
610.0359999999999
 10
197.768
 20
609.9400000000001
 10
188.592
 20
605.918
 10
188.338
 20
605.796
 10
188.085
 20
605.6849999999999
 10
183.431
 20
603.443
 10
178.827
 20
601.236
 10
178.573
 20
601.103
 10
178.332
 20
600.9880000000001
 10
176.138
 20
599.833
 10
169.928
 20
596.593
 10
169.205
 20
596.1849999999999
 10
168.549
 20
595.84
 10
165.781
 20
594.255
 10
161.19
 20
591.6660000000001
 10
160.05
 20
590.971
 10
158.956
 20
590.345
 10
155.553
 20
588.234
 10
152.171
 20
586.175
 10
151.063
 20
585.448
 10
150.005
 20
584.792
 10
147.404
 20
583.049
 10
143.771
 20
580.668
 10
142.206
 20
579.567
 10
140.83
 20
578.645
 10
138.303
 20
576.822
 10
135.557
 20
574.8920000000001
 10
134.016
 20
573.73
 10
132.465
 20
572.612
 10
129.918
 20
570.6420000000001
 10
127.377
 20
568.727
 10
125.881
 20
567.52
 10
124.397
 20
566.372
 10
122.264
 20
564.603
 10
119.552
 20
562.415
 10
117.588
 20
560.723
 10
115.907
 20
559.327
 10
113.916
 20
557.557
 10
111.938
 20
555.853
 10
110.207
 20
554.26
 10
108.469
 20
552.716
 10
106.785
 20
551.112
 10
104.662
 20
549.16
 10
102.381
 20
546.92
 10
100.489
 20
545.119
 10
99.114
 20
543.7140000000001
 10
97.48099999999999
 20
542.111
 10
94.84900000000002
 20
539.353
 10
92.78200000000001
 20
537.24
 10
91.625
 20
535.975
 10
90.53399999999999
 20
534.832
 10
88.43700000000001
 20
532.49
 10
86.34399999999999
 20
530.202
 10
85.40200000000002
 20
529.101
 10
84.20099999999999
 20
527.76
 10
81.28300000000002
 20
524.285
 10
79.18700000000001
 20
521.836
 10
78.51000000000002
 20
520.984
 10
77.72499999999999
 20
520.049
 10
74.352
 20
515.756
 10
72.33500000000001
 20
513.22
 10
71.90200000000002
 20
512.6369999999999
 10
71.50400000000002
 20
512.131
 10
69.19800000000001
 20
509.001
 10
66.911
 20
505.923
 10
66.56900000000002
 20
505.43
 10
66.124
 20
504.827
 10
61.96800000000002
 20
498.8
 10
60.64099999999999
 20
496.888
 10
60.51599999999999
 20
496.696
 10
60.40299999999999
 20
496.531
 10
59.50000000000003
 20
495.126
 10
55.864
 20
489.51
 10
55.376
 20
488.707
 10
54.95500000000001
 20
488.051
 10
53.70000000000002
 20
485.95
 10
51.369
 20
482.116
 10
50.64200000000002
 20
480.828
 10
49.785
 20
479.394
 10
47.57200000000003
 20
475.397
 10
45.96400000000003
 20
472.551
 10
45.47400000000002
 20
471.606
 10
44.89900000000003
 20
470.568
 10
41.09600000000003
 20
463.185
 10
41.00000000000003
 20
462.984
 10
40.90599999999998
 20
462.804
 10
39.886
 20
460.656
 10
36.74100000000001
 20
454.075
 10
36.46599999999998
 20
453.447
 10
36.19899999999998
 20
452.884
 10
34.89000000000001
 20
449.853
 10
32.684
 20
444.819
 10
32.25899999999999
 20
443.756
 10
31.84900000000002
 20
442.808
 10
30.648
 20
439.728
 10
28.93199999999999
 20
435.436
 10
28.38399999999998
 20
433.922
 10
27.86300000000002
 20
432.587
 10
26.84400000000002
 20
429.672
 10
25.49100000000001
 20
425.936
 10
24.845
 20
423.953
 10
24.239
 20
422.219
 10
23.37800000000001
 20
419.449
 10
22.299
 20
416.135
 10
21.578
 20
413.652
 10
20.90400000000002
 20
411.482
 10
20.18899999999999
 20
408.875
 10
19.31800000000001
 20
405.879
 10
18.54499999999998
 20
402.873
 10
17.82700000000002
 20
400.255
 10
17.24600000000001
 20
397.827
 10
16.54699999999999
 20
395.113
 10
15.74199999999998
 20
391.548
 10
15.00199999999998
 20
388.461
 10
14.537
 20
386.218
 10
13.984
 20
383.766
 10
13.16900000000001
 20
379.615
 10
12.42600000000001
 20
376.029
 10
12.06000000000003
 20
373.959
 10
11.626
 20
371.744
 10
10.82700000000002
 20
366.99
 10
10.09600000000003
 20
362.86
 10
9.80899999999999
 20
360.933
 10
9.469000000000015
 20
358.914
 10
8.71200000000001
 20
353.567
 10
8.003999999999984
 20
348.819
 10
7.777000000000008
 20
346.972
 10
7.508999999999979
 20
345.081
 10
6.80899999999999
 20
339.109
 10
6.144000000000026
 20
333.713
 10
5.965999999999972
 20
331.926
 10
5.75000000000002
 20
330.078
 10
5.092000000000004
 20
323.14
 10
4.505999999999991
 20
317.255
 10
4.380999999999991
 20
315.642
 10
4.224999999999985
 20
313.993
 10
3.337000000000008
 20
302.173
 10
3.140000000000005
 20
299.627
 10
3.120000000000023
 20
299.28
 10
3.089999999999993
 20
298.881
 10
2.568000000000001
 20
289.684
 10
2.041000000000014
 20
280.505
 10
2.024000000000018
 20
280.093
 10
2.00199999999997
 20
279.702
 10
1.779000000000013
 20
273.903
 10
1.198999999999971
 20
259.303
 10
1.168999999999998
 20
258.074
 10
1.128999999999978
 20
257.042
 10
0.8829999999999965
 20
246.596
 10
0.5859999999999702
 20
234.661
 10
0.5630000000000024
 20
232.975
 10
0.5299999999999869
 20
231.605
 10
0.3920000000000094
 20
220.062
 10
0.1789999999999861
 20
204.017
 10
0.1660000000000091
 20
201.129
 10
0.1399999999999985
 20
198.942
 10
0.09600000000001503
 20
186.019
 10
0.01599999999997305
 20
168.813
 10
0.01499999999999629
 20
162.231
 10
0.005000000000005196
 20
159.118
 10
0
 20
0
 10
-2.602288501872552e-016
 20
-4.25
 10
50
 20
-4.250000000000003
 10
50
 20
-2.853880000000003
 10
87.06799999999998
 20
1.042079999999995
 10
88.90999999999997
 20
1.413249999999994
 10
90.64999999999998
 20
2.122559999999995
 10
92.22699999999998
 20
3.144929999999994
 10
93.58499999999998
 20
4.444259999999995
 10
94.44699999999997
 20
5.599209999999993
 10
95.20699999999997
 20
7.030999999999994
 10
95.72599999999997
 20
8.570599999999995
 10
95.99799999999999
 20
10.29029999999999
 10
96.92399999999998
 20
23.53919999999999
 10
117.018
 20
24.18389999999999
 10
118.127
 20
40.05759999999999
 10
98.31799999999998
 20
43.49049999999999
 10
99.54199999999997
 20
61.00259999999999
 10
105.698
 20
61.00259999999999
 10
105.698
 20
61.43539999999999
 10
125.698
 20
61.43539999999999
 10
125.698
 20
61.00259999999999
 10
175.698
 20
61.00259999999999
 10
175.698
 20
61.75219999999999
 10
215.198
 20
61.76069999999999
 10
218.4
 20
56.76269999999999
 10
415.4
 20
56.76269999999997
 10
418.602
 20
61.76069999999997
 10
458.102
 20
61.75219999999997
 10
458.102
 20
61.00259999999997
 10
508.102
 20
61.00259999999997
 10
508.102
 20
61.43539999999997
 10
528.102
 20
61.43539999999997
 10
528.102
 20
61.00259999999997
 10
534.258
 20
61.00259999999997
 10
535.428
 20
44.26859999999996
 10
532.4349999999999
 20
44.05949999999996
 10
532.505
 20
43.06189999999997
 10
526.519
 20
42.64369999999997
 10
526.592
 20
41.60239999999997
 10
515.6189999999999
 20
40.83569999999997
 10
516.728
 20
24.96199999999997
 10
527.701
 20
25.72879999999997
 10
527.774
 20
24.68749999999997
 10
533.759
 20
25.10569999999997
 10
533.829
 20
24.10819999999997
 10
536.822
 20
24.31729999999997
 10
537.8019999999999
 20
10.29029999999997
 10
538.074
 20
8.570599999999967
 10
538.593
 20
7.030999999999968
 10
539.353
 20
5.599209999999966
 10
540.2149999999999
 20
4.444259999999967
 10
541.573
 20
3.144929999999966
 10
543.15
 20
2.122559999999967
 10
544.89
 20
1.413249999999966
 10
546.732
 20
1.042079999999967
 10
583.8
 20
-2.853880000000036
 10
583.8
 20
-4.250000000000036
 10
633.8
 20
-4.250000000000039
 10
633.795
 20
159.118
 10
633.785
 20
162.231
 10
633.784
 20
168.813
 10
633.704
 20
186.019
 10
633.66
 20
198.942
 10
633.634
 20
201.129
 10
633.621
 20
204.017
 10
633.4079999999999
 20
220.061
 10
633.27
 20
231.605
 10
633.237
 20
232.974
 10
633.2139999999999
 20
234.661
 10
632.9169999999999
 20
246.596
 10
632.671
 20
257.0419999999999
 10
632.631
 20
258.074
 10
632.601
 20
259.3029999999999
 10
632.021
 20
273.903
 10
631.798
 20
279.7019999999999
 10
631.776
 20
280.093
 10
631.759
 20
280.5049999999999
 10
631.232
 20
289.6829999999999
 10
630.71
 20
298.8809999999999
 10
630.6799999999999
 20
299.2799999999999
 10
630.66
 20
299.627
 10
630.463
 20
302.172
 10
629.575
 20
313.9929999999999
 10
629.419
 20
315.6419999999999
 10
629.294
 20
317.2549999999999
 10
628.708
 20
323.139
 10
628.05
 20
330.0779999999999
 10
627.8340000000001
 20
331.9259999999999
 10
627.6559999999999
 20
333.713
 10
626.991
 20
339.1109999999999
 10
626.2909999999999
 20
345.081
 10
626.0229999999999
 20
346.97
 10
625.796
 20
348.819
 10
625.088
 20
353.5699999999999
 10
624.3309999999999
 20
358.9139999999999
 10
623.991
 20
360.932
 10
623.704
 20
362.86
 10
622.973
 20
366.99
 10
622.174
 20
371.744
 10
621.74
 20
373.9589999999999
 10
621.374
 20
376.0289999999999
 10
620.631
 20
379.615
 10
619.816
 20
383.766
 10
619.2629999999999
 20
386.218
 10
618.798
 20
388.461
 10
618.058
 20
391.5479999999999
 10
617.2529999999999
 20
395.1129999999999
 10
616.554
 20
397.8269999999999
 10
615.973
 20
400.2549999999999
 10
615.255
 20
402.8729999999999
 10
614.482
 20
405.879
 10
613.611
 20
408.874
 10
612.896
 20
411.482
 10
612.222
 20
413.6519999999999
 10
611.501
 20
416.1349999999999
 10
610.421
 20
419.4499999999999
 10
609.5609999999999
 20
422.2189999999999
 10
608.9549999999999
 20
423.9519999999999
 10
608.309
 20
425.9359999999999
 10
606.9559999999999
 20
429.672
 10
605.9369999999999
 20
432.5869999999999
 10
605.4159999999999
 20
433.922
 10
604.8679999999999
 20
435.4359999999999
 10
603.152
 20
439.728
 10
601.951
 20
442.8079999999999
 10
601.5409999999999
 20
443.7559999999999
 10
601.116
 20
444.819
 10
598.909
 20
449.8539999999999
 10
597.601
 20
452.884
 10
597.3340000000001
 20
453.4469999999999
 10
597.059
 20
454.0749999999999
 10
593.913
 20
460.6569999999999
 10
592.894
 20
462.8039999999999
 10
592.8
 20
462.9839999999999
 10
592.704
 20
463.1849999999999
 10
588.901
 20
470.5679999999999
 10
588.326
 20
471.6059999999999
 10
587.836
 20
472.5509999999999
 10
586.228
 20
475.396
 10
584.015
 20
479.3939999999999
 10
583.1579999999999
 20
480.829
 10
582.431
 20
482.1159999999999
 10
580.102
 20
485.9469999999999
 10
578.845
 20
488.0509999999999
 10
578.424
 20
488.7069999999999
 10
577.9359999999999
 20
489.5099999999999
 10
574.304
 20
495.1199999999999
 10
573.3969999999999
 20
496.5309999999999
 10
573.2829999999999
 20
496.696
 10
573.159
 20
496.8879999999999
 10
571.836
 20
498.795
 10
567.6759999999999
 20
504.8269999999999
 10
567.231
 20
505.4309999999999
 10
566.889
 20
505.9229999999999
 10
564.603
 20
508.999
 10
562.2959999999999
 20
512.131
 10
561.8979999999999
 20
512.6369999999999
 10
561.4649999999999
 20
513.22
 10
559.448
 20
515.756
 10
556.075
 20
520.049
 10
555.29
 20
520.985
 10
554.6129999999999
 20
521.836
 10
552.519
 20
524.283
 10
549.5989999999999
 20
527.76
 10
548.3979999999999
 20
529.101
 10
547.456
 20
530.202
 10
545.3629999999999
 20
532.49
 10
543.266
 20
534.832
 10
542.175
 20
535.975
 10
541.018
 20
537.24
 10
538.951
 20
539.352
 10
536.319
 20
542.111
 10
534.6849999999999
 20
543.7140000000001
 10
533.3109999999999
 20
545.119
 10
531.42
 20
546.92
 10
529.1379999999999
 20
549.16
 10
527.015
 20
551.112
 10
525.331
 20
552.716
 10
523.5939999999999
 20
554.26
 10
521.862
 20
555.853
 10
519.884
 20
557.558
 10
517.893
 20
559.327
 10
516.212
 20
560.722
 10
514.248
 20
562.415
 10
511.535
 20
564.604
 10
509.403
 20
566.372
 10
507.919
 20
567.52
 10
506.4230000000001
 20
568.727
 10
503.882
 20
570.6420000000001
 10
501.335
 20
572.612
 10
499.784
 20
573.73
 10
498.243
 20
574.8920000000001
 10
495.497
 20
576.822
 10
492.97
 20
578.645
 10
491.594
 20
579.567
 10
490.0290000000001
 20
580.668
 10
486.395
 20
583.05
 10
483.795
 20
584.792
 10
482.738
 20
585.448
 10
481.6290000000001
 20
586.175
 10
478.244
 20
588.236
 10
474.844
 20
590.345
 10
473.752
 20
590.97
 10
472.6100000000001
 20
591.6660000000001
 10
468.016
 20
594.256
 10
465.251
 20
595.84
 10
464.5960000000001
 20
596.1849999999999
 10
463.872
 20
596.593
 10
457.653
 20
599.838
 10
455.468
 20
600.987
 10
455.229
 20
601.103
 10
454.973
 20
601.236
 10
450.358
 20
603.448
 10
445.715
 20
605.6849999999999
 10
445.463
 20
605.795
 10
445.208
 20
605.918
 10
436.032
 20
609.9400000000001
 10
435.792
 20
610.0359999999999
 10
435.58
 20
610.13
 10
433.431
 20
610.981
 10
426.7210000000001
 20
613.667
 10
426.002
 20
613.926
 10
425.292
 20
614.208
 10
420.8170000000001
 20
615.798
 10
416.3270000000001
 20
617.419
 10
415.5541
 20
617.669
 10
414.8716
 20
617.9109999999999
 10
411.8712
 20
618.8579999999999
 10
406.8052
 20
620.4930000000001
 10
405.4677
 20
620.878
 10
404.3061
 20
621.244
 10
401.3366
 20
622.0650000000001
 10
397.1754
 20
623.26
 10
395.2604000000001
 20
623.744
 10
393.6285
 20
624.1950000000001
 10
390.9297
 20
624.837
 10
387.4624000000001
 20
625.713
  0
LWPOLYLINE
  5
4F
100
AcDbEntity
  8
0
  6
ByLayer
 62
  256
370
   -1
100
AcDbPolyline
 90
   79
 70
    0
 43
0
 10
491.7329999999999
 20
412.458
 10
474.187
 20
430.004
 10
491.7329999999999
 20
412.458
 10
492.967
 20
411.427
 10
494.365
 20
410.6329999999999
 10
495.8819999999999
 20
410.0989999999999
 10
497.4689999999999
 20
409.8439999999999
 10
499.077
 20
409.8759999999999
 10
500.653
 20
410.1929999999999
 10
518.009
 20
415.3349999999999
 10
523.4399999999999
 20
407.67
 10
516.178
 20
403.7269999999999
 10
514.787
 20
402.814
 10
513.567
 20
401.684
 10
512.55
 20
400.367
 10
511.8579999999999
 20
399.103
 10
511.304
 20
397.579
 10
511.004
 20
395.9829999999999
 10
510.974
 20
394.242
 10
512.5509999999999
 20
371.67
 10
492.742
 20
368.237
 10
493.851
 20
352.3639999999999
 10
513.9449999999999
 20
351.7189999999999
 10
515.141
 20
334.6019999999999
 10
505.668
 20
331.684
 10
506.249
 20
318.3929999999999
 10
516.396
 20
316.646
 10
516.669
 20
312.735
 10
506.864
 20
309.5939999999999
 10
508.1369999999999
 20
296.35
 10
517.923
 20
294.7789999999999
 10
518.197
 20
290.867
 10
508.724
 20
287.9499999999999
 10
509.3049999999999
 20
274.658
 10
519.451
 20
272.9109999999999
 10
522.45
 20
230
 10
379.8
 20
230
 10
379.8
 20
180
 10
525.944
 20
180
 10
533.5599999999999
 20
70.99739999999997
 10
528.102
 20
70.99739999999997
 10
528.102
 20
70.56459999999997
 10
508.102
 20
70.56459999999997
 10
508.102
 20
70.99739999999997
 10
458.102
 20
70.99739999999997
 10
458.102
 20
70.24779999999997
 10
418.602
 20
70.23929999999997
 10
415.4
 20
75.23729999999998
 10
218.4
 20
75.23729999999999
 10
215.198
 20
70.23929999999999
 10
175.698
 20
70.24779999999998
 10
175.698
 20
70.99739999999998
 10
125.698
 20
70.99739999999998
 10
125.698
 20
70.56459999999998
 10
105.698
 20
70.5646
 10
105.698
 20
70.9974
 10
100.24
 20
70.9974
 10
101.11
 20
83.44710000000001
 10
111.256
 20
85.19410000000001
 10
112.169
 20
98.262
 10
102.365
 20
101.403
 10
102.638
 20
105.31
 10
112.784
 20
107.057
 10
113.697
 20
120.125
 10
103.892
 20
123.266
 10
104.165
 20
127.172
 10
114.312
 20
128.919
 10
115.225
 20
141.988
 10
105.42
 20
145.129
 10
107.856
 20
180
 10
254
 20
180
 10
254
 20
230
 10
111.35
 20
230
 10
119.871
 20
351.938
 10
139.964
 20
352.583
 10
141.073
 20
368.457
 10
121.265
 20
371.89
 10
122.826
 20
394.242
 10
121.265
 20
371.89
  0
LWPOLYLINE
  5
50
100
AcDbEntity
  8
0
  6
ByLayer
 62
  256
370
   -1
100
AcDbPolyline
 90
   71
 70
    0
 43
0
 10
122.826
 20
394.242
 10
122.796
 20
395.983
 10
122.496
 20
397.58
 10
121.942
 20
399.103
 10
121.25
 20
400.367
 10
120.233
 20
401.684
 10
119.013
 20
402.814
 10
117.622
 20
403.727
 10
110.36
 20
407.67
 10
115.79
 20
415.334
 10
133.147
 20
410.193
 10
134.723
 20
409.876
 10
136.331
 20
409.844
 10
137.918
 20
410.099
 10
139.435
 20
410.632
 10
159.613
 20
430.004
 10
168.876
 20
425.125
 10
177.927
 20
434.176
 10
173.048
 20
443.439
 10
179.058
 20
449.449
 10
194.615
 20
436.722
 10
205.928
 20
448.035
 10
193.201
 20
463.592
 10
198.201
 20
468.592
 10
211.483
 20
453.644
 10
224.7866
 20
459.155
 10
224.1274
 20
471.329
 10
227.425
 20
471.514
 10
233.339
 20
462.156
 10
241.6539
 20
465.6
 10
255.8132
 20
431.416
 10
258.4264
 20
430.334
 10
284.295
 20
441.049
 10
285.3774
 20
443.662
 10
271.2181
 20
477.846
 10
279.533
 20
481.29
 10
276.5443
 20
488.833
 10
283.9022000000001
 20
492.3
 10
287.7028
 20
485.215
 10
301.0066
 20
490.726
 10
299.828
 20
510.688
 10
306.9
 20
510.688
 10
308.9
 20
490.688
 10
324.9
 20
490.688
 10
326.9
 20
510.688
 10
333.972
 20
510.688
 10
332.7934
 20
490.726
 10
346.0972
 20
485.215
 10
353.5469000000001
 20
494.577
 10
356.7025
 20
492.089
 10
354.2670000000001
 20
481.29
 10
362.5819
 20
477.846
 10
348.4226
 20
443.662
 10
349.505
 20
441.049
 10
375.3736
 20
430.334
 10
377.9868
 20
431.416
 10
392.1461
 20
465.6
 10
400.461
 20
462.156
 10
405.3406000000001
 20
471.086
 10
410.4068
 20
471.025
 10
409.0134
 20
459.155
 10
422.317
 20
453.644
 10
435.599
 20
468.592
 10
440.599
 20
463.592
 10
427.872
 20
448.035
 10
439.1849999999999
 20
436.722
 10
454.742
 20
449.449
 10
460.752
 20
443.439
 10
455.873
 20
434.176
 10
464.924
 20
425.1249999999999
 10
474.187
 20
430.004
  0
LINE
  5
51
100
AcDbEntity
  8
0
  6
ByLayer
 62
  256
370
   -1
100
AcDbLine
 10
603.7972454685407
 20
85.74999999999996
 11
663.7972454966421
 21
85.74999999999996
  0
LINE
  5
52
100
AcDbEntity
  8
0
  6
ByLayer
 62
  256
370
   -1
100
AcDbLine
 10
-29.99730547365315
 20
85.75
 11
30.00269455596942
 21
85.75
  0
ENDSEC
  0
SECTION
  2
OBJECTS
  0
DICTIONARY
  5
C
330
0
100
AcDbDictionary
281
    1
  3
ACAD_GROUP
350
D
  0
DICTIONARY
  5
D
330
C
100
AcDbDictionary
281
    1
  0
ENDSEC
  0
EOF
