999
dxfrw 0.6.3
  0
SECTION
  2
HEADER
  9
$ACADVER
  1
AC1021
  9
$DWGCODEPAGE
  3
ANSI_1252
  9
$INSBASE
 10
0
 20
0
 30
0
  9
$EXTMIN
 10
-30.00095056696546
 20
-3.061515884555943e-015
 30
0
  9
$EXTMAX
 10
646.9000000000001
 20
676.8957086288076
 30
0
  9
$LIMMIN
 10
0
 20
0
  9
$LIMMAX
 10
420
 20
297
  9
$ORTHOMODE
 70
    0
  9
$REGENMODE
 70
    1
  9
$FILLMODE
 70
    1
  9
$QTEXTMODE
 70
    0
  9
$MIRRTEXT
 70
    0
  9
$LTSCALE
 40
1
  9
$ATTMODE
 70
    0
  9
$TEXTSIZE
 40
2.5
  9
$TRACEWID
 40
15.68
  9
$TEXTSTYLE
  7
STANDARD
  9
$CLAYER
  8
0
  9
$CELTYPE
  6
BYLAYER
  9
$CECOLOR
 62
  256
  9
$CELTSCALE
 40
1
  9
$DISPSILH
 70
    0
  9
$DIMSCALE
 40
2.5
  9
$DIMASZ
 40
2.5
  9
$DIMEXO
 40
0.625
  9
$DIMDLI
 40
3.75
  9
$DIMRND
 40
0
  9
$DIMDLE
 40
0
  9
$DIMEXE
 40
1.25
  9
$DIMTP
 40
0
  9
$DIMTM
 40
0
  9
$DIMTXT
 40
2.5
  9
$DIMCEN
 40
2.5
  9
$DIMTSZ
 40
0
  9
$DIMTOL
 70
    0
  9
$DIMLIM
 70
    0
  9
$DIMTIH
 70
    0
  9
$DIMTOH
 70
    0
  9
$DIMSE1
 70
    0
  9
$DIMSE2
 70
    0
  9
$DIMTAD
 70
    1
  9
$DIMZIN
 70
    8
  9
$DIMBLK
  1

  9
$DIMASO
 70
    1
  9
$DIMSHO
 70
    1
  9
$DIMPOST
  1

  9
$DIMAPOST
  1

  9
$DIMALT
 70
    0
  9
$DIMALTD
 70
    3
  9
$DIMALTF
 40
0.03937
  9
$DIMLFAC
 40
1
  9
$DIMTOFL
 70
    1
  9
$DIMTVP
 40
0
  9
$DIMTIX
 70
    0
  9
$DIMSOXD
 70
    0
  9
$DIMSAH
 70
    0
  9
$DIMBLK1
  1

  9
$DIMBLK2
  1

  9
$DIMSTYLE
  2
Standard
  9
$DIMCLRD
 70
    0
  9
$DIMCLRE
 70
    0
  9
$DIMCLRT
 70
    0
  9
$DIMTFAC
 40
1
  9
$DIMGAP
 40
0.625
  9
$DIMJUST
 70
    0
  9
$DIMSD1
 70
    0
  9
$DIMSD2
 70
    0
  9
$DIMTOLJ
 70
    0
  9
$DIMTZIN
 70
    8
  9
$DIMALTZ
 70
    0
  9
$DIMALTTZ
 70
    0
  9
$DIMUPT
 70
    0
  9
$DIMDEC
 70
    2
  9
$DIMTDEC
 70
    2
  9
$DIMALTU
 70
    2
  9
$DIMALTTD
 70
    3
  9
$DIMTXSTY
  7
STANDARD
  9
$DIMAUNIT
 70
    0
  9
$DIMADEC
 70
    0
  9
$DIMALTRND
 40
0
  9
$DIMAZIN
 70
    0
  9
$DIMDSEP
 70
   44
  9
$DIMATFIT
 70
    3
  9
$DIMFRAC
 70
    0
  9
$DIMLDRBLK
  1
STANDARD
  9
$DIMLUNIT
 70
    2
  9
$DIMLWD
 70
   -2
  9
$DIMLWE
 70
   -2
  9
$DIMTMOVE
 70
    0
  9
$DIMFXL
 40
1
  9
$DIMFXLON
 70
    0
  9
$DIMJOGANG
 40
0.7854
  9
$DIMTFILL
 70
    0
  9
$DIMTFILLCLR
 70
    0
  9
$DIMARCSYM
 70
    0
  9
$DIMLTYPE
  6

  9
$DIMLTEX1
  6

  9
$DIMLTEX2
  6

  9
$LUNITS
 70
    2
  9
$LUPREC
 70
    4
  9
$SKETCHINC
 40
1
  9
$FILLETRAD
 40
0
  9
$AUNITS
 70
    0
  9
$AUPREC
 70
    2
  9
$MENU
  1
.
  9
$ELEVATION
 40
0
  9
$PELEVATION
 40
0
  9
$THICKNESS
 40
0
  9
$LIMCHECK
 70
    0
  9
$CHAMFERA
 40
0
  9
$CHAMFERB
 40
0
  9
$CHAMFERC
 40
0
  9
$CHAMFERD
 40
0
  9
$SKPOLY
 70
    0
  9
$USRTIMER
 70
    1
  9
$ANGBASE
 50
0
  9
$ANGDIR
 70
    0
  9
$PDMODE
 70
   34
  9
$PDSIZE
 40
0
  9
$PLINEWID
 40
0
  9
$SPLFRAME
 70
    0
  9
$SPLINETYPE
 70
    2
  9
$SPLINESEGS
 70
    8
  9
$HANDSEED
  5
20000
  9
$SURFTAB1
 70
    6
  9
$SURFTAB2
 70
    6
  9
$SURFTYPE
 70
    6
  9
$SURFU
 70
    6
  9
$SURFV
 70
    6
  9
$UCSBASE
  2

  9
$UCSNAME
  2

  9
$UCSORG
 10
0
 20
0
 30
0
  9
$UCSXDIR
 10
1
 20
0
 30
0
  9
$UCSYDIR
 10
0
 20
1
 30
0
  9
$UCSORTHOREF
  2

  9
$UCSORTHOVIEW
 70
    0
  9
$UCSORGTOP
 10
0
 20
0
 30
0
  9
$UCSORGBOTTOM
 10
0
 20
0
 30
0
  9
$UCSORGLEFT
 10
0
 20
0
 30
0
  9
$UCSORGRIGHT
 10
0
 20
0
 30
0
  9
$UCSORGFRONT
 10
0
 20
0
 30
0
  9
$UCSORGBACK
 10
0
 20
0
 30
0
  9
$PUCSBASE
  2

  9
$PUCSNAME
  2

  9
$PUCSORG
 10
0
 20
0
 30
0
  9
$PUCSXDIR
 10
1
 20
0
 30
0
  9
$PUCSYDIR
 10
0
 20
1
 30
0
  9
$PUCSORTHOREF
  2

  9
$PUCSORTHOVIEW
 70
    0
  9
$PUCSORGTOP
 10
0
 20
0
 30
0
  9
$PUCSORGBOTTOM
 10
0
 20
0
 30
0
  9
$PUCSORGLEFT
 10
0
 20
0
 30
0
  9
$PUCSORGRIGHT
 10
0
 20
0
 30
0
  9
$PUCSORGFRONT
 10
0
 20
0
 30
0
  9
$PUCSORGBACK
 10
0
 20
0
 30
0
  9
$USERI1
 70
    0
  9
$USERI2
 70
    0
  9
$USERI3
 70
    0
  9
$USERI4
 70
    0
  9
$USERI5
 70
    0
  9
$USERR1
 40
0
  9
$USERR2
 40
0
  9
$USERR3
 40
0
  9
$USERR4
 40
0
  9
$USERR5
 40
0
  9
$WORLDVIEW
 70
    1
  9
$SHADEDGE
 70
    3
  9
$SHADEDIF
 70
   70
  9
$TILEMODE
 70
    1
  9
$MAXACTVP
 70
   64
  9
$PINSBASE
 10
0
 20
0
 30
0
  9
$PLIMCHECK
 70
    0
  9
$PEXTMIN
 10
0
 20
0
 30
0
  9
$PEXTMAX
 10
0
 20
0
 30
0
  9
$GRIDMODE
 70
    1
  9
$SNAPSTYLE
 70
    0
  9
$PLIMMIN
 10
0
 20
0
  9
$PLIMMAX
 10
210
 20
297
  9
$UNITMODE
 70
    0
  9
$VISRETAIN
 70
    1
  9
$PLINEGEN
 70
    0
  9
$PSLTSCALE
 70
    1
  9
$TREEDEPTH
 70
 3020
  9
$CMLSTYLE
  2
Standard
  9
$CMLJUST
 70
    0
  9
$CMLSCALE
 40
20
  9
$PROXYGRAPHICS
 70
    1
  9
$MEASUREMENT
 70
    1
  9
$CELWEIGHT
370
   -1
  9
$ENDCAPS
280
    0
  9
$JOINSTYLE
280
    0
  9
$LWDISPLAY
290
    0
  9
$INSUNITS
 70
    4
  9
$HYPERLINKBASE
  1

  9
$STYLESHEET
  1

  9
$XEDIT
290
    1
  9
$CEPSNTYPE
380
    0
  9
$PSTYLEMODE
290
    1
  9
$EXTNAMES
290
    1
  9
$PSVPSCALE
 40
1
  9
$OLESTARTUP
290
    0
  9
$SORTENTS
280
  127
  9
$INDEXCTL
280
    0
  9
$HIDETEXT
280
    1
  9
$XCLIPFRAME
290
    0
  9
$HALOGAP
280
    0
  9
$OBSCOLOR
 70
  257
  9
$OBSLTYPE
280
    0
  9
$INTERSECTIONDISPLAY
280
    0
  9
$INTERSECTIONCOLOR
 70
  257
  9
$DIMASSOC
280
    1
  9
$PROJECTNAME
  1

  9
$CAMERADISPLAY
290
    0
  9
$LENSLENGTH
 40
50
  9
$CAMERAHEIGHT
 40
0
  9
$STEPSPERSEC
 40
2
  9
$STEPSIZE
 40
50
  9
$3DDWFPREC
 40
2
  9
$PSOLWIDTH
 40
5
  9
$PSOLHEIGHT
 40
80
  9
$LOFTANG1
 40
1.570796326794897
  9
$LOFTANG2
 40
1.570796326794897
  9
$LOFTMAG1
 40
0
  9
$LOFTMAG2
 40
0
  9
$LOFTPARAM
 70
    7
  9
$LOFTNORMALS
280
    1
  9
$LATITUDE
 40
1
  9
$LONGITUDE
 40
1
  9
$NORTHDIRECTION
 40
0
  9
$TIMEZONE
 70
-8000
  9
$LIGHTGLYPHDISPLAY
280
    1
  9
$TILEMODELIGHTSYNCH
280
    1
  9
$SOLIDHIST
280
    1
  9
$SHOWHIST
280
    1
  9
$DWFFRAME
280
    2
  9
$DGNFRAME
280
    0
  9
$REALWORLDSCALE
290
    1
  9
$INTERFERECOLOR
 62
    1
  9
$CSHADOW
280
    0
  9
$SHADOWPLANELOCATION
 40
0
  0
ENDSEC
  0
SECTION
  2
CLASSES
  0
ENDSEC
  0
SECTION
  2
TABLES
  0
TABLE
  2
VPORT
  5
8
330
0
100
AcDbSymbolTable
 70
    1
  0
VPORT
  5
31
330
2
100
AcDbSymbolTableRecord
100
AcDbViewportTableRecord
  2
*ACTIVE
 70
    0
 10
0
 20
0
 11
1
 21
1
 12
840.609982653648
 22
619.3968293237407
 13
0
 23
0
 14
10
 24
10
 15
10
 25
10
 16
0
 26
0
 36
1
 17
0
 27
0
 37
0
 40
1523.210570071648
 41
1.677731673582296
 42
50
 43
0
 44
0
 50
0
 51
0
 71
    0
 72
  100
 73
    1
 74
    3
 75
    0
 76
    1
 77
    0
 78
    0
281
    0
 65
    1
110
0
120
0
130
0
111
1
121
0
131
0
112
0
122
1
132
0
 79
    0
146
0
348
10020
 60
    7
 61
    5
292
1
282
    1
141
0
142
0
 63
  250
421
3358443
  0
ENDTAB
  0
TABLE
  2
LTYPE
  5
5
330
0
100
AcDbSymbolTable
 70
    4
  0
LTYPE
  5
14
330
5
100
AcDbSymbolTableRecord
100
AcDbLinetypeTableRecord
  2
ByBlock
 70
    0
  3

 72
   65
 73
    0
 40
0
  0
LTYPE
  5
15
330
5
100
AcDbSymbolTableRecord
100
AcDbLinetypeTableRecord
  2
ByLayer
 70
    0
  3

 72
   65
 73
    0
 40
0
  0
LTYPE
  5
16
330
5
100
AcDbSymbolTableRecord
100
AcDbLinetypeTableRecord
  2
Continuous
 70
    0
  3
Solid line
 72
   65
 73
    0
 40
0
  0
LTYPE
  5
32
330
5
100
AcDbSymbolTableRecord
100
AcDbLinetypeTableRecord
  2
DOT
 70
    0
  3
Dot . . . . . . . . . . . . . . . . . . . . . .
 72
   65
 73
    2
 40
6.35
 49
0
 74
    0
 49
-6.35
 74
    0
  0
LTYPE
  5
33
330
5
100
AcDbSymbolTableRecord
100
AcDbLinetypeTableRecord
  2
DOTTINY
 70
    0
  3
Dot (.15x) .....................................
 72
   65
 73
    2
 40
0.9525
 49
0
 74
    0
 49
-0.9525
 74
    0
  0
LTYPE
  5
34
330
5
100
AcDbSymbolTableRecord
100
AcDbLinetypeTableRecord
  2
DOT2
 70
    0
  3
Dot (.5x) .....................................
 72
   65
 73
    2
 40
3.175
 49
0
 74
    0
 49
-3.175
 74
    0
  0
LTYPE
  5
35
330
5
100
AcDbSymbolTableRecord
100
AcDbLinetypeTableRecord
  2
DOTX2
 70
    0
  3
Dot (2x) .  .  .  .  .  .  .  .  .  .  .  .  .
 72
   65
 73
    2
 40
12.7
 49
0
 74
    0
 49
-12.7
 74
    0
  0
LTYPE
  5
36
330
5
100
AcDbSymbolTableRecord
100
AcDbLinetypeTableRecord
  2
DASHED
 70
    0
  3
Dashed _ _ _ _ _ _ _ _ _ _ _ _ _ _ _ _ _
 72
   65
 73
    2
 40
19.05
 49
12.7
 74
    0
 49
-6.35
 74
    0
  0
LTYPE
  5
37
330
5
100
AcDbSymbolTableRecord
100
AcDbLinetypeTableRecord
  2
DASHEDTINY
 70
    0
  3
Dashed (.15x) _ _ _ _ _ _ _ _ _ _ _ _ _ _ _ _ _
 72
   65
 73
    2
 40
2.8575
 49
1.905
 74
    0
 49
-0.9525
 74
    0
  0
LTYPE
  5
38
330
5
100
AcDbSymbolTableRecord
100
AcDbLinetypeTableRecord
  2
DASHED2
 70
    0
  3
Dashed (.5x) _ _ _ _ _ _ _ _ _ _ _ _ _ _ _ _ _
 72
   65
 73
    2
 40
9.524999999999999
 49
6.35
 74
    0
 49
-3.175
 74
    0
  0
LTYPE
  5
39
330
5
100
AcDbSymbolTableRecord
100
AcDbLinetypeTableRecord
  2
DASHEDX2
 70
    0
  3
Dashed (2x) ____  ____  ____  ____  ____  ___
 72
   65
 73
    2
 40
38.09999999999999
 49
25.4
 74
    0
 49
-12.7
 74
    0
  0
LTYPE
  5
3A
330
5
100
AcDbSymbolTableRecord
100
AcDbLinetypeTableRecord
  2
DASHDOT
 70
    0
  3
Dash dot __ . __ . __ . __ . __ . __ . __ . __
 72
   65
 73
    4
 40
25.4
 49
12.7
 74
    0
 49
-6.35
 74
    0
 49
0
 74
    0
 49
-6.35
 74
    0
  0
LTYPE
  5
3B
330
5
100
AcDbSymbolTableRecord
100
AcDbLinetypeTableRecord
  2
DASHDOTTINY
 70
    0
  3
Dash dot (.15x) _._._._._._._._._._._._._._._.
 72
   65
 73
    4
 40
3.81
 49
1.905
 74
    0
 49
-0.9525
 74
    0
 49
0
 74
    0
 49
-0.9525
 74
    0
  0
LTYPE
  5
3C
330
5
100
AcDbSymbolTableRecord
100
AcDbLinetypeTableRecord
  2
DASHDOT2
 70
    0
  3
Dash dot (.5x) _._._._._._._._._._._._._._._.
 72
   65
 73
    4
 40
12.7
 49
6.35
 74
    0
 49
-3.175
 74
    0
 49
0
 74
    0
 49
-3.175
 74
    0
  0
LTYPE
  5
3D
330
5
100
AcDbSymbolTableRecord
100
AcDbLinetypeTableRecord
  2
DASHDOTX2
 70
    0
  3
Dash dot (2x) ____  .  ____  .  ____  .  ___
 72
   65
 73
    4
 40
50.8
 49
25.4
 74
    0
 49
-12.7
 74
    0
 49
0
 74
    0
 49
-12.7
 74
    0
  0
LTYPE
  5
3E
330
5
100
AcDbSymbolTableRecord
100
AcDbLinetypeTableRecord
  2
DIVIDE
 70
    0
  3
Divide ____ . . ____ . . ____ . . ____ . . ____
 72
   65
 73
    6
 40
31.75
 49
12.7
 74
    0
 49
-6.35
 74
    0
 49
0
 74
    0
 49
-6.35
 74
    0
 49
0
 74
    0
 49
-6.35
 74
    0
  0
LTYPE
  5
3F
330
5
100
AcDbSymbolTableRecord
100
AcDbLinetypeTableRecord
  2
DIVIDETINY
 70
    0
  3
Divide (.15x) __..__..__..__..__..__..__..__.._
 72
   65
 73
    6
 40
4.7625
 49
1.905
 74
    0
 49
-0.9525
 74
    0
 49
0
 74
    0
 49
-0.9525
 74
    0
 49
0
 74
    0
 49
-0.9525
 74
    0
  0
LTYPE
  5
40
330
5
100
AcDbSymbolTableRecord
100
AcDbLinetypeTableRecord
  2
DIVIDE2
 70
    0
  3
Divide (.5x) __..__..__..__..__..__..__..__.._
 72
   65
 73
    6
 40
15.875
 49
6.35
 74
    0
 49
-3.175
 74
    0
 49
0
 74
    0
 49
-3.175
 74
    0
 49
0
 74
    0
 49
-3.175
 74
    0
  0
LTYPE
  5
41
330
5
100
AcDbSymbolTableRecord
100
AcDbLinetypeTableRecord
  2
DIVIDEX2
 70
    0
  3
Divide (2x) ________  .  .  ________  .  .  _
 72
   65
 73
    6
 40
63.5
 49
25.4
 74
    0
 49
-12.7
 74
    0
 49
0
 74
    0
 49
-12.7
 74
    0
 49
0
 74
    0
 49
-12.7
 74
    0
  0
LTYPE
  5
42
330
5
100
AcDbSymbolTableRecord
100
AcDbLinetypeTableRecord
  2
BORDER
 70
    0
  3
Border __ __ . __ __ . __ __ . __ __ . __ __ .
 72
   65
 73
    6
 40
44.45
 49
12.7
 74
    0
 49
-6.35
 74
    0
 49
12.7
 74
    0
 49
-6.35
 74
    0
 49
0
 74
    0
 49
-6.35
 74
    0
  0
LTYPE
  5
43
330
5
100
AcDbSymbolTableRecord
100
AcDbLinetypeTableRecord
  2
BORDERTINY
 70
    0
  3
Border (.15x) __.__.__.__.__.__.__.__.__.__.__.
 72
   65
 73
    6
 40
6.6675
 49
1.905
 74
    0
 49
-0.9525
 74
    0
 49
1.905
 74
    0
 49
-0.9525
 74
    0
 49
0
 74
    0
 49
-0.9525
 74
    0
  0
LTYPE
  5
44
330
5
100
AcDbSymbolTableRecord
100
AcDbLinetypeTableRecord
  2
BORDER2
 70
    0
  3
Border (.5x) __.__.__.__.__.__.__.__.__.__.__.
 72
   65
 73
    6
 40
22.225
 49
6.35
 74
    0
 49
-3.175
 74
    0
 49
6.35
 74
    0
 49
-3.175
 74
    0
 49
0
 74
    0
 49
-3.175
 74
    0
  0
LTYPE
  5
45
330
5
100
AcDbSymbolTableRecord
100
AcDbLinetypeTableRecord
  2
BORDERX2
 70
    0
  3
Border (2x) ____  ____  .  ____  ____  .  ___
 72
   65
 73
    6
 40
88.89999999999999
 49
25.4
 74
    0
 49
-12.7
 74
    0
 49
25.4
 74
    0
 49
-12.7
 74
    0
 49
0
 74
    0
 49
-12.7
 74
    0
  0
LTYPE
  5
46
330
5
100
AcDbSymbolTableRecord
100
AcDbLinetypeTableRecord
  2
CENTER
 70
    0
  3
Center ____ _ ____ _ ____ _ ____ _ ____ _ ____
 72
   65
 73
    4
 40
50.8
 49
31.75
 74
    0
 49
-6.35
 74
    0
 49
6.35
 74
    0
 49
-6.35
 74
    0
  0
LTYPE
  5
47
330
5
100
AcDbSymbolTableRecord
100
AcDbLinetypeTableRecord
  2
CENTERTINY
 70
    0
  3
Center (.15x) ___ _ ___ _ ___ _ ___ _ ___ _ ___
 72
   65
 73
    4
 40
7.62
 49
4.7625
 74
    0
 49
-0.9525
 74
    0
 49
0.9525
 74
    0
 49
-0.9525
 74
    0
  0
LTYPE
  5
48
330
5
100
AcDbSymbolTableRecord
100
AcDbLinetypeTableRecord
  2
CENTER2
 70
    0
  3
Center (.5x) ___ _ ___ _ ___ _ ___ _ ___ _ ___
 72
   65
 73
    4
 40
28.575
 49
19.05
 74
    0
 49
-3.175
 74
    0
 49
3.175
 74
    0
 49
-3.175
 74
    0
  0
LTYPE
  5
49
330
5
100
AcDbSymbolTableRecord
100
AcDbLinetypeTableRecord
  2
CENTERX2
 70
    0
  3
Center (2x) ________  __  ________  __  _____
 72
   65
 73
    4
 40
101.6
 49
63.5
 74
    0
 49
-12.7
 74
    0
 49
12.7
 74
    0
 49
-12.7
 74
    0
  0
ENDTAB
  0
TABLE
  2
LAYER
  5
2
330
0
100
AcDbSymbolTable
 70
    1
  0
LAYER
  5
10
330
2
100
AcDbSymbolTableRecord
100
AcDbLayerTableRecord
  2
0
 70
    0
 62
    7
  6
CONTINUOUS
370
    0
390
F
  0
ENDTAB
  0
TABLE
  2
STYLE
  5
3
330
0
100
AcDbSymbolTable
 70
    3
  0
STYLE
  5
4A
330
2
100
AcDbSymbolTableRecord
100
AcDbTextStyleTableRecord
  2
Standard
 70
    0
 40
0
 41
1
 50
0
 71
    0
 42
1
  3
txt
  4

  0
ENDTAB
  0
TABLE
  2
VIEW
  5
6
330
0
100
AcDbSymbolTable
 70
    0
  0
ENDTAB
  0
TABLE
  2
UCS
  5
7
330
0
100
AcDbSymbolTable
 70
    0
  0
ENDTAB
  0
TABLE
  2
APPID
  5
9
330
0
100
AcDbSymbolTable
 70
    1
  0
APPID
  5
12
330
9
100
AcDbSymbolTableRecord
100
AcDbRegAppTableRecord
  2
ACAD
 70
    0
  0
APPID
  5
4B
330
9
100
AcDbSymbolTableRecord
100
AcDbRegAppTableRecord
  2
LibreCad
 70
    0
  0
ENDTAB
  0
TABLE
  2
DIMSTYLE
  5
A
330
0
100
AcDbSymbolTable
 70
    1
100
AcDbDimStyleTable
 71
    1
  0
DIMSTYLE
105
4C
330
A
100
AcDbSymbolTableRecord
100
AcDbDimStyleTableRecord
  2
Standard
 70
    0
 40
2.5
 41
2.5
 42
0.625
 43
0.38
 44
1.25
 45
0
 46
0
 47
0
 48
0
 49
1
140
2.5
141
0.09
142
0
143
25.4
144
1
145
0
146
1
147
0.625
148
0
 71
    0
 72
    0
 73
    0
 74
    1
 75
    0
 76
    0
 77
    0
 78
    8
 79
    0
170
    0
171
    2
172
    0
173
    0
174
    0
175
    0
176
    0
177
    0
178
    0
179
    0
271
    2
272
    4
273
    2
274
    2
275
    0
276
    0
277
    2
278
   44
279
    0
280
    0
281
    0
282
    0
283
    1
284
    0
285
    0
286
    0
288
    0
289
    3
340
STANDARD
341

371
   -2
372
   -2
  0
ENDTAB
  0
TABLE
  2
BLOCK_RECORD
  5
1
330
0
100
AcDbSymbolTable
 70
    2
  0
BLOCK_RECORD
  5
1F
330
1
100
AcDbSymbolTableRecord
100
AcDbBlockTableRecord
  2
*Model_Space
 70
    0
280
    1
281
    0
  0
BLOCK_RECORD
  5
1E
330
1
100
AcDbSymbolTableRecord
100
AcDbBlockTableRecord
  2
*Paper_Space
 70
    0
280
    1
281
    0
  0
ENDTAB
  0
ENDSEC
  0
SECTION
  2
BLOCKS
  0
BLOCK
  5
20
330
1F
100
AcDbEntity
  8
0
100
AcDbBlockBegin
  2
*Model_Space
 70
    0
 10
0
 20
0
 30
0
  3
*Model_Space
  1

  0
ENDBLK
  5
21
330
1F
100
AcDbEntity
  8
0
100
AcDbBlockEnd
  0
BLOCK
  5
1C
330
1B
100
AcDbEntity
  8
0
100
AcDbBlockBegin
  2
*Paper_Space
 70
    0
 10
0
 20
0
 30
0
  3
*Paper_Space
  1

  0
ENDBLK
  5
1D
330
1F
100
AcDbEntity
  8
0
100
AcDbBlockEnd
  0
ENDSEC
  0
SECTION
  2
ENTITIES
  0
LINE
  5
4D
100
AcDbEntity
  8
0
  6
ByLayer
 62
  256
370
   -1
100
AcDbLine
 10
98.31800000000001
 20
47.74050299999999
 11
101.11
 21
87.697103
  0
LINE
  5
4E
100
AcDbEntity
  8
0
  6
ByLayer
 62
  256
370
   -1
100
AcDbLine
 10
197.0300000000001
 20
461.860003
 11
206.308
 21
471.139003
  0
LINE
  5
4F
100
AcDbEntity
  8
0
  6
ByLayer
 62
  256
370
   -1
100
AcDbLine
 10
290.9310000000001
 20
527.045003
 11
308.0482800000001
 21
528.241003
  0
LWPOLYLINE
  5
50
100
AcDbEntity
  8
0
  6
ByLayer
 62
  256
370
   -1
100
AcDbPolyline
 90
  328
 70
    1
 43
0
 10
92.227
 20
7.394922999999995
 10
93.58500000000001
 20
8.694262999999994
 10
94.447
 20
9.849202999999996
 10
95.20700000000002
 20
11.28100299999999
 10
95.726
 20
12.82060299999999
 10
95.99800000000002
 20
14.54020299999999
 10
96.92400000000001
 20
27.78920299999999
 10
117.018
 20
28.43390299999999
 10
118.127
 20
44.30760299999999
 10
98.31800000000001
 20
47.74050299999999
 10
101.11
 20
87.697103
 10
111.256
 20
89.444103
 10
112.169
 20
102.512003
 10
102.365
 20
105.653003
 10
102.638
 20
109.560003
 10
112.784
 20
111.307003
 10
113.697
 20
124.375003
 10
103.892
 20
127.516003
 10
104.165
 20
131.422003
 10
114.312
 20
133.169003
 10
115.225
 20
146.238003
 10
105.42
 20
149.379003
 10
107.856
 20
184.250003
 10
254
 20
184.250003
 10
254
 20
234.250003
 10
111.35
 20
234.250003
 10
119.871
 20
356.188003
 10
139.964
 20
356.833003
 10
148.043
 20
368.325003
 10
142.952
 20
374.548003
 10
147.962
 20
380.505003
 10
154.796
 20
374.371003
 10
161.1600000000001
 20
380.735003
 10
187.323
 20
354.572003
 10
190.151
 20
354.572003
 10
209.95
 20
374.371003
 10
209.95
 20
377.199003
 10
183.787
 20
403.362003
 10
190.151
 20
409.726003
 10
184.503
 20
415.551003
 10
189.974
 20
421.570003
 10
196.197
 20
416.479003
 10
206.379
 20
426.662003
 10
197.974
 20
444.330003
 10
205.928
 20
452.285003
 10
197.0300000000001
 20
461.860003
 10
206.308
 20
471.139003
 10
211.084
 20
469.886003
 10
216.6120000000001
 20
475.413003
 10
215.359
 20
480.189003
 10
260.0576
 20
524.8880029999999
 10
270.9797
 20
525.6510029999999
 10
274.4126000000001
 20
505.842003
 10
290.2862000000001
 20
506.951003
 10
290.9310000000001
 20
527.045003
 10
308.0482800000001
 20
528.241003
 10
310.9657000000001
 20
518.7680029999999
 10
324.0912300000001
 20
519.337003
 10
326.0044800000001
 20
529.496003
 10
329.9149
 20
529.769003
 10
332.8324000000001
 20
520.2960029999999
 10
346.2995000000001
 20
521.237003
 10
347.8712
 20
531.0230029999999
 10
351.7826000000001
 20
531.2970029999999
 10
354.7001000000001
 20
521.823003
 10
368.1672
 20
522.765003
 10
369.7388000000001
 20
532.5510029999999
 10
412.65
 20
535.5500029999999
 10
412.65
 20
392.900003
 10
462.65
 20
392.900003
 10
462.65
 20
539.044003
 10
598.3810000000001
 20
548.5280029999999
 10
601.8140000000001
 20
528.7190029999999
 10
617.688
 20
529.828003
 10
618.3330000000001
 20
549.9220029999999
 10
632.36
 20
550.9020029999999
 10
634.079
 20
551.174003
 10
635.619
 20
551.693003
 10
637.0509999999999
 20
552.453003
 10
638.206
 20
553.3150029999999
 10
639.505
 20
554.673003
 10
640.527
 20
556.250003
 10
641.2370000000001
 20
557.990003
 10
641.6079999999999
 20
559.832003
 10
645.504
 20
596.900003
 10
646.9000000000001
 20
596.900003
 10
646.9000000000001
 20
646.900003
 10
521.155
 20
646.894003
 10
519.961
 20
646.894003
 10
519.893
 20
646.894003
 10
476.5260000000001
 20
646.8880029999999
 10
458.3750000000001
 20
646.842003
 10
456.6140000000001
 20
646.8340029999999
 10
455.4030000000001
 20
646.8250029999999
 10
441.9650000000001
 20
646.7490029999999
 10
427.2830000000001
 20
646.6080029999999
 10
426.058
 20
646.593003
 10
424.7450000000001
 20
646.5700029999999
 10
410.5995000000001
 20
646.362003
 10
398.7493000000001
 20
646.120003
 10
397.9070000000001
 20
646.1000029999999
 10
397.1138000000001
 20
646.0760029999999
 10
385.4378000000001
 20
645.765003
 10
375.3102000000001
 20
645.4210029999999
 10
374.8339000000001
 20
645.4030029999999
 10
374.3116000000001
 20
645.3790029999999
 10
364.0000000000001
 20
644.947003
 10
354.4339000000001
 20
644.4590029999999
 10
354.0629000000001
 20
644.438003
 10
353.7032000000001
 20
644.415003
 10
344.7194000000001
 20
643.8720029999999
 10
336.1974000000001
 20
643.274003
 10
335.861
 20
643.2490029999999
 10
335.4954000000001
 20
643.217003
 10
326.9546000000001
 20
642.529003
 10
319.5554500000001
 20
641.8540029999999
 10
319.25435
 20
641.8250029999999
 10
318.8800300000001
 20
641.785003
 10
310.38446
 20
640.914003
 10
304.0809
 20
640.197003
 10
303.7942
 20
640.163003
 10
303.3672000000001
 20
640.107003
 10
295.1532000000001
 20
639.073003
 10
289.7283
 20
638.323003
 10
289.4747
 20
638.2860029999999
 10
289.2545000000001
 20
638.2520029999999
 10
283.2782000000001
 20
637.3590029999999
 10
276.4839000000001
 20
636.255003
 10
276.2363000000001
 20
636.213003
 10
275.9446000000001
 20
636.159003
 10
269.9185000000001
 20
635.0940029999999
 10
264.1244000000001
 20
633.987003
 10
263.8930000000001
 20
633.9410029999999
 10
263.6505000000001
 20
633.890003
 10
258.1479
 20
632.760003
 10
252.4925
 20
631.515003
 10
252.1558
 20
631.438003
 10
251.7907
 20
631.3490029999999
 10
246.1593000000001
 20
630.0170029999999
 10
241.4794
 20
628.8360029999999
 10
241.1485
 20
628.750003
 10
240.6775
 20
628.620003
 10
234.758
 20
627.024003
 10
231.0054
 20
625.9490029999999
 10
230.682
 20
625.8540029999999
 10
230.0223000000001
 20
625.649003
 10
223.8872
 20
623.779003
 10
221.0097
 20
622.852003
 10
220.6998
 20
622.750003
 10
219.7119
 20
622.4080029999999
 10
213.38
 20
620.241003
 10
211.4290000000001
 20
619.538003
 10
211.137
 20
619.4320029999999
 10
210.226
 20
619.082003
 10
204.019
 20
616.7300029999999
 10
202.069
 20
615.9540029999999
 10
200.784
 20
615.4350029999999
 10
196.7560000000001
 20
613.7300029999999
 10
193.763
 20
612.477003
 10
192.8210000000001
 20
612.0650029999999
 10
191.5880000000001
 20
611.519003
 10
187.702
 20
609.7230029999999
 10
184.665
 20
608.3340029999999
 10
183.715
 20
607.881003
 10
181.5290000000001
 20
606.822003
 10
177.4930000000001
 20
604.7860029999999
 10
175.7
 20
603.895003
 10
174.746
 20
603.4010029999999
 10
171.6360000000001
 20
601.7620029999999
 10
165.948
 20
598.644003
 10
165.927
 20
598.6330029999999
 10
165.919
 20
598.6280029999999
 10
162.893
 20
596.905003
 10
157.275
 20
593.5840029999999
 10
156.3620000000001
 20
593.029003
 10
156.077
 20
592.8500029999999
 10
154.3260000000001
 20
591.7760029999999
 10
148.816
 20
588.2720029999999
 10
147.915
 20
587.684003
 10
147.443
 20
587.3640029999999
 10
145.0110000000001
 20
585.756003
 10
140.518
 20
582.678003
 10
138.74
 20
581.428003
 10
138.19
 20
581.0280029999999
 10
136.805
 20
580.0460029999999
 10
132.4040000000001
 20
576.8160029999999
 10
129.811
 20
574.856003
 10
129.434
 20
574.5620029999999
 10
128.795
 20
574.077003
 10
124.494
 20
570.7010029999999
 10
121.97
 20
568.6610029999999
 10
121.294
 20
568.0940029999999
 10
120.138
 20
567.1530029999999
 10
115.95
 20
563.6140029999999
 10
114.3260000000001
 20
562.207003
 10
113.476
 20
561.447003
 10
111.7190000000001
 20
559.9080029999999
 10
108.471
 20
556.967003
 10
106.0940000000001
 20
554.761003
 10
105.364
 20
554.0610029999999
 10
104.3680000000001
 20
553.1290029999999
 10
101.214
 20
550.082003
 10
98.92100000000005
 20
547.8120029999999
 10
98.21600000000004
 20
547.0900029999999
 10
97.24700000000004
 20
546.1240029999999
 10
94.19600000000003
 20
542.9780029999999
 10
91.96900000000005
 20
540.6240029999999
 10
90.97300000000004
 20
539.5330029999999
 10
89.60300000000004
 20
538.0700029999999
 10
86.67000000000004
 20
534.8200029999999
 10
84.52400000000003
 20
532.3820029999999
 10
83.95200000000003
 20
531.7090029999999
 10
82.97100000000003
 20
530.5860029999999
 10
79.43900000000005
 20
526.3920029999999
 10
77.39200000000005
 20
523.890003
 10
77.09600000000003
 20
523.5170029999999
 10
76.59100000000004
 20
522.8970029999999
 10
73.20200000000003
 20
518.5980029999999
 10
73.15900000000005
 20
518.5420029999999
 10
73.12800000000004
 20
518.501003
 10
71.23500000000004
 20
516.0280029999999
 10
70.71600000000004
 20
515.3240029999999
 10
69.80700000000004
 20
514.126003
 10
66.58600000000004
 20
509.724003
 10
65.33500000000004
 20
507.968003
 10
64.77600000000004
 20
507.153003
 10
63.33700000000005
 20
505.109003
 10
60.28600000000003
 20
500.606003
 10
59.09600000000003
 20
498.803003
 10
58.77600000000004
 20
498.299003
 10
57.79500000000004
 20
496.798003
 10
54.32100000000005
 20
491.273003
 10
53.76800000000006
 20
490.368003
 10
53.62200000000004
 20
490.120003
 10
52.53300000000004
 20
488.324003
 10
48.71000000000006
 20
481.754003
 10
47.01100000000005
 20
478.709003
 10
44.67300000000003
 20
474.337003
 10
43.93200000000004
 20
472.976003
 10
43.43600000000006
 20
472.023003
 10
41.83300000000006
 20
468.892003
 10
40.35900000000007
 20
465.879003
 10
39.44000000000003
 20
464.045003
 10
38.50900000000004
 20
462.099003
 10
37.00800000000007
 20
458.888003
 10
35.70900000000003
 20
455.996003
 10
35.23900000000006
 20
454.973003
 10
34.89400000000003
 20
454.183003
 10
34.73200000000006
 20
453.823003
 10
33.94500000000002
 20
452.013003
 10
32.54700000000005
 20
448.717003
 10
32.00500000000002
 20
447.372003
 10
31.33500000000006
 20
445.770003
 10
29.74700000000004
 20
441.772003
 10
28.45400000000004
 20
438.389003
 10
28.08800000000005
 20
437.389003
 10
27.72600000000003
 20
436.431003
 10
27.11000000000004
 20
434.711003
 10
26.54500000000004
 20
433.166003
 10
25.91700000000005
 20
431.381003
 10
24.73000000000004
 20
427.909003
 10
24.60900000000006
 20
427.532003
 10
24.39100000000004
 20
426.892003
 10
22.45000000000001
 20
420.832003
 10
21.36000000000004
 20
417.242003
 10
21.32900000000003
 20
417.131003
 10
21.26500000000001
 20
416.920003
 10
19.24700000000004
 20
409.828003
 10
18.34800000000004
 20
406.473003
 10
18.31600000000006
 20
406.348003
 10
18.24300000000002
 20
406.072003
 10
16.29600000000002
 20
398.285003
 10
15.64000000000001
 20
395.493003
 10
15.57400000000004
 20
395.189003
 10
15.37700000000003
 20
394.348003
 10
13.59700000000006
 20
386.144003
 10
13.11200000000005
 20
383.765003
 10
13.03700000000006
 20
383.365003
 10
12.76200000000002
 20
382.002003
 10
11.14800000000005
 20
373.330003
 10
10.82700000000002
 20
371.488003
 10
10.75400000000004
 20
371.037003
 10
10.39800000000005
 20
368.957003
 10
8.946000000000048
 20
359.739003
 10
8.74400000000005
 20
358.359003
 10
8.72600000000002
 20
358.223003
 10
8.562000000000033
 20
357.101003
 10
6.984000000000059
 20
345.202003
 10
6.85300000000003
 20
344.125003
 10
6.838000000000044
 20
343.988003
 10
6.64300000000005
 20
342.364003
 10
5.249000000000044
 20
329.481003
 10
5.182000000000037
 20
328.809003
 10
5.170000000000036
 20
328.673003
 10
4.944000000000036
 20
326.333003
 10
3.757000000000024
 20
312.465003
 10
3.746000000000057
 20
312.313003
 10
3.744000000000047
 20
312.283003
 10
3.504000000000038
 20
309.079003
 10
2.589000000000017
 20
294.949003
 10
2.545000000000034
 20
294.286003
 10
2.537000000000053
 20
294.145003
 10
2.334000000000021
 20
290.449003
 10
1.579000000000025
 20
274.042003
 10
1.427000000000037
 20
269.977003
 10
0.8640000000000482
 20
251.248003
 10
0.8510000000000144
 20
250.714003
 10
0.8480000000000285
 20
250.578003
 10
0.7490000000000387
 20
246.357003
 10
0.352000000000046
 20
223.553003
 10
0.3390000000000123
 20
222.671003
 10
0.3360000000000263
 20
222.263003
 10
0.2750000000000474
 20
217.277003
 10
0.1070000000000397
 20
194.789003
 10
0.07500000000000032
 20
190.895003
 10
0.0650000000000093
 20
189.137003
 10
0.03200000000005004
 20
178.568003
 10
0.02699999999999718
 20
169.304003
 10
0.002999999999995488
 20
156.550003
 10
6.730375473981048e-015
 20
109.919003
 10
-0.0009999999999696938
 20
108.760003
 10
-0.0009999999999705559
 20
94.680503
 10
0
 20
0
 10
50
 20
-3.061515884555943e-015
 10
50
 20
1.396122999999997
 10
87.06800000000001
 20
5.292082999999995
 10
88.91000000000003
 20
5.663272999999995
 10
90.65000000000001
 20
6.372562999999995
  0
LINE
  5
51
100
AcDbEntity
  8
0
  6
ByLayer
 62
  256
370
   -1
100
AcDbLine
 10
-30.00095056696546
 20
90
 11
35
 21
90
  0
LINE
  5
52
100
AcDbEntity
  8
0
  6
ByLayer
 62
  256
370
   -1
100
AcDbLine
 10
556.9000000000001
 20
676.8957086288076
 11
556.9000000000001
 21
611.900003
  0
ENDSEC
  0
SECTION
  2
OBJECTS
  0
DICTIONARY
  5
C
330
0
100
AcDbDictionary
281
    1
  3
ACAD_GROUP
350
D
  0
DICTIONARY
  5
D
330
C
100
AcDbDictionary
281
    1
  0
ENDSEC
  0
EOF
